<svg width="368" height="573" viewBox="0 0 368 573" fill="none" xmlns="http://www.w3.org/2000/svg">
<g opacity="0.3" clip-path="url(#clip0)">
<path opacity="0.1" d="M10.1448 247.577H84.5375V348.841H15.591C15.4078 349.88 15.2319 350.927 15.0413 351.974H84.5375V433.641C84.4129 433.604 84.3029 433.56 84.1856 433.516C82.2212 432.74 80.2714 431.921 78.3216 431.042L77.0755 430.478C75.1208 429.556 73.1661 428.58 71.2115 427.55C70.5298 427.192 69.8481 426.818 69.1737 426.438C58.3222 420.367 48.4641 412.674 39.9415 403.627C39.6922 403.385 39.4577 403.129 39.2085 402.895C38.021 401.607 36.8555 400.304 35.7267 398.971L34.4806 397.507C33.1465 395.875 31.8564 394.198 30.603 392.5C30.4197 392.251 30.2438 392.002 30.0532 391.768C24.9555 384.709 20.7228 377.066 17.4455 369.001C17.3429 368.76 17.2549 368.496 17.1597 368.269C16.153 365.683 15.2612 363.072 14.4842 360.436C14.147 359.331 13.8245 358.24 13.5459 357.091C13.4433 356.754 13.3554 356.425 13.2747 356.095C9.11126 339.866 8.62015 323.007 8.62015 306.265C8.62015 304.311 8.62015 302.349 8.62015 300.409C8.62015 293.637 8.70078 286.822 8.81806 280.014C8.81806 278.25 8.89136 276.493 8.92801 274.721C9.03063 270.227 9.17723 265.732 9.36781 261.237C9.41179 259.985 9.47043 258.741 9.5364 257.496C9.5364 256.779 9.57306 256.062 9.64636 255.344C9.82228 252.738 9.96888 250.154 10.1448 247.577Z" fill="#5C76FF"/>
<path opacity="0.1" d="M84.5375 134.828H43.7311C50.3644 124.459 57.612 114.495 65.4354 104.99C71.4973 97.5522 77.8964 90.3049 84.5375 83.3212V134.828Z" fill="url(#paint0_linear)"/>
<path opacity="0.1" d="M84.5375 137.961V244.444H10.3794C10.3794 244.137 10.4307 243.822 10.4527 243.514C10.5186 242.673 10.5846 241.831 10.6579 240.996C10.7385 240.015 10.8265 239.027 10.9218 238.068C11.0171 237.109 11.1197 235.938 11.2296 234.876C11.3396 233.815 11.4422 232.739 11.5668 231.677C11.6914 230.616 11.8014 229.554 11.9333 228.5C12.0653 227.446 12.1826 226.377 12.3218 225.323C12.4318 224.445 12.5491 223.574 12.6663 222.695C12.8349 221.458 13.0109 220.213 13.2014 218.984C13.2014 218.801 13.2527 218.61 13.2821 218.435C14.6199 209.432 16.4429 200.507 18.743 191.7C21.1506 182.462 24.225 173.41 27.9422 164.615C31.8928 155.414 36.5184 146.518 41.7813 137.998L84.5375 137.961Z" fill="url(#paint1_linear)"/>
<path opacity="0.1" d="M102.298 247.57V348.841H261.192V247.57H102.298ZM102.298 351.967V438.934C103.207 439.124 104.109 439.307 105.003 439.461C106.22 439.695 107.429 439.907 108.668 440.09C108.903 440.127 109.144 440.163 109.401 440.185C109.885 440.266 110.383 440.332 110.867 440.398C112.091 440.566 113.308 440.705 114.532 440.815C115.111 440.873 115.697 440.925 116.284 440.969L117.699 441.078C118.468 441.137 119.231 441.181 119.986 441.203C120.455 441.203 120.924 441.247 121.408 441.261C121.774 441.261 122.141 441.261 122.522 441.261C122.903 441.261 123.445 441.261 123.907 441.261C124.538 441.261 125.168 441.261 125.791 441.261H126.634C127.264 441.261 127.895 441.261 128.518 441.203H128.562C128.994 441.203 129.434 441.203 129.874 441.144C129.996 441.152 130.118 441.152 130.24 441.144C130.607 441.144 130.973 441.144 131.325 441.093H131.582L134.037 440.903C134.844 440.83 135.657 440.734 136.478 440.647L138.149 440.449C144.949 439.497 151.672 438.069 158.27 436.174C173.092 432.045 187.591 426.269 202.405 422.038C221.558 416.584 242.72 413.905 261.228 420.574V351.967H102.298ZM261.192 134.828V0.00733306C243.796 -0.180893 226.447 1.85112 209.566 6.05402C169.331 16.1489 133.231 38.0443 102.298 66.0084V134.821H110.273V137.946H102.298V244.444H261.192V137.954H143.017V134.828H261.192ZM465.282 89.2874C455.328 88.936 445.433 85.7882 436.483 80.9275C419.367 71.6305 405.696 57.2751 390.42 45.1598C358.681 19.9262 319.319 4.69973 278.938 0.922388V134.828H505.766L506.331 134.235L465.282 89.2874ZM485.946 85.6272L507.855 109.638V79.3316C500.518 80.2394 494.089 82.3989 485.975 85.5979L485.946 85.6272ZM507.855 460.529V351.967H461.17C461.046 351.506 460.921 351.037 460.774 350.569C460.914 351.037 461.031 351.506 461.163 351.967H278.967V430.478C280.697 431.76 282.405 433.107 284.098 434.475C285.923 435.94 287.726 437.484 289.537 438.999L291.362 440.507C292.234 441.24 293.114 441.972 294.001 442.66C295.76 444.085 297.536 445.49 299.33 446.876C300.217 447.608 301.126 448.267 302.027 448.955C316.341 459.884 331.44 469.747 347.202 478.464C350.736 480.416 354.3 482.322 357.897 484.181C360.294 485.404 362.706 486.619 365.124 487.797C368.76 489.569 372.425 491.277 376.12 492.922C410.18 508.191 446.196 518.669 483.138 524.056C491.343 525.266 499.58 526.218 507.848 526.911V460.522H508.581L507.855 460.529ZM278.967 137.954V244.444H507.885V137.954H278.967ZM278.967 247.57V348.841H507.885V247.57H278.967ZM525.653 79.1999V113.006L553.617 82.3623C544.352 80.8689 535.03 79.8026 525.653 79.1633V79.1999ZM525.653 247.607V348.841H748.303V247.57L525.653 247.607ZM747.489 468.567L748.274 351.967H525.653V528.075C539.994 528.676 554.357 528.505 568.68 527.562H568.929C575.771 527.133 582.58 526.508 589.358 525.688H589.512C625.672 521.485 661.029 512.063 694.478 497.717L747.489 468.567ZM791.235 264.246C790.399 262.277 789.527 260.322 788.64 258.39C786.984 254.729 785.232 251.172 783.429 247.614H766.056V348.841H809.978C809.956 320.174 802.692 290.892 791.257 264.209L791.235 264.246ZM766.056 352.003V452.293C778.429 440.449 788.882 426.899 796.41 411.409C805.463 392.756 809.604 372.559 809.941 351.989L766.056 352.003ZM766.056 218.098V244.451H781.801C777.038 235.379 771.789 226.57 766.078 218.061L766.056 218.098ZM615.057 99.0675C613.899 98.6283 612.741 98.1818 611.575 97.7498C599.284 93.2165 586.723 89.4466 573.965 86.4617L531.172 133.364L530.351 134.235L530.901 134.835H683.205C661.993 120.253 639.125 108.235 615.079 99.0309L615.057 99.0675ZM687.669 137.99H528.775L525.653 140.845V244.444H553.023H553.067H748.332V194.263C730.668 172.928 710.281 153.997 687.691 137.954L687.669 137.99Z" fill="url(#paint2_linear)"/>
<path opacity="0.1" d="M84.5375 191.671V244.444H10.3794C10.3794 244.137 10.4307 243.822 10.4527 243.514C10.5186 242.673 10.5846 241.831 10.6579 240.996C10.7385 240.015 10.8265 239.027 10.9218 238.068C11.0171 237.109 11.1197 235.938 11.2296 234.876C11.3396 233.815 11.4422 232.739 11.5668 231.677C11.6914 230.616 11.8014 229.554 11.9333 228.5C12.0653 227.446 12.1826 226.377 12.3218 225.323C12.4318 224.445 12.5491 223.573 12.6663 222.695C12.8349 221.458 13.0109 220.213 13.2014 218.984C13.2014 218.801 13.2527 218.61 13.2821 218.435C14.6199 209.432 16.4429 200.507 18.743 191.7L84.5375 191.671Z" fill="url(#paint3_linear)"/>
<path opacity="0.1" d="M10.1448 247.577H84.5375V348.841H15.591C15.4078 349.88 15.2319 350.927 15.0413 351.974H84.5375V433.641C84.4129 433.604 84.3029 433.56 84.1856 433.516C82.2212 432.74 80.2714 431.921 78.3216 431.042L77.0755 430.478C75.1208 429.556 73.1661 428.58 71.2115 427.55C70.5298 427.192 69.8481 426.818 69.1737 426.438C58.3222 420.367 48.4641 412.674 39.9415 403.627C39.6922 403.385 39.4577 403.129 39.2085 402.895C38.021 401.607 36.8555 400.304 35.7267 398.971L34.4806 397.507C33.1465 395.875 31.8564 394.198 30.603 392.5C30.4197 392.251 30.2438 392.002 30.0532 391.768C24.9555 384.709 20.7228 377.066 17.4455 369.001C17.3429 368.76 17.2549 368.496 17.1597 368.269C16.153 365.683 15.2612 363.072 14.4842 360.436C14.147 359.331 13.8245 358.24 13.5459 357.091C13.4433 356.754 13.3554 356.425 13.2747 356.095C9.11126 339.866 8.62015 323.007 8.62015 306.265C8.62015 304.311 8.62015 302.349 8.62015 300.409C8.62015 293.637 8.70078 286.822 8.81806 280.014C8.81806 278.25 8.89136 276.493 8.92801 274.721C9.03063 270.227 9.17723 265.732 9.36781 261.237C9.41179 259.985 9.47043 258.741 9.5364 257.496C9.5364 256.779 9.57306 256.062 9.64636 255.344C9.82228 252.738 9.96888 250.154 10.1448 247.577Z" fill="url(#paint4_linear)"/>
<path opacity="0.1" d="M158.234 153.202V244.444H102.298V153.202H110.273V122.31H143.009V153.202H158.234Z" fill="#5C76FF"/>
<path opacity="0.1" d="M158.234 247.57H102.306V348.834H158.234V247.57Z" fill="#5C76FF"/>
<path opacity="0.1" d="M102.298 351.974H158.234V436.159C151.636 438.052 144.912 439.479 138.113 440.427L136.442 440.632C135.621 440.727 134.807 440.808 134.001 440.888C133.194 440.969 132.359 441.027 131.545 441.078H131.288C130.937 441.078 130.555 441.122 130.211 441.13H129.837C129.397 441.13 128.958 441.174 128.518 441.188C127.895 441.225 127.272 441.232 126.634 441.239C126.363 441.239 126.106 441.239 125.835 441.239C125.205 441.239 124.581 441.239 123.951 441.239H122.566C122.192 441.239 121.833 441.239 121.444 441.239L120.03 441.188C119.297 441.188 118.505 441.108 117.743 441.056L116.335 440.954L114.583 440.793C113.352 440.683 112.128 440.544 110.918 440.376L109.452 440.171L108.719 440.068C107.495 439.878 106.286 439.673 105.054 439.439C104.153 439.285 103.258 439.095 102.349 438.912L102.298 351.974Z" fill="#5C76FF"/>
<path opacity="0.1" d="M507.892 247.57V348.841H278.967V305.16H400.902V330.928H461.764V247.57H507.892Z" fill="#5C76FF"/>
<path opacity="0.1" d="M508.618 460.551H507.885V526.984C499.626 526.286 491.392 525.337 483.182 524.136C446.221 518.732 410.19 508.232 376.12 492.936C366.283 488.515 356.646 483.688 347.21 478.457C331.448 469.736 316.346 459.873 302.027 448.948C298.431 446.195 294.881 443.379 291.377 440.5C288.951 438.502 286.539 436.452 284.098 434.461C282.405 433.092 280.697 431.745 278.967 430.456V351.974H461.155C461.031 351.506 460.906 351.037 460.774 350.576C460.914 351.037 461.046 351.506 461.17 351.974H507.885V460.507C508.134 460.514 508.376 460.536 508.618 460.551Z" fill="url(#paint5_linear)"/>
<path opacity="0.1" d="M233.424 573.896C272.87 573.896 304.848 568.766 304.848 562.439C304.848 556.112 272.87 550.983 233.424 550.983C193.978 550.983 162 556.112 162 562.439C162 568.766 193.978 573.896 233.424 573.896Z" fill="#5C76FF"/>
<path opacity="0.1" d="M384.864 346.491H278.967V348.841H384.864V346.491Z" fill="#5C76FF"/>
<path opacity="0.1" d="M384.864 351.967H278.967V360.971H384.864V351.967Z" fill="#5C76FF"/>
<path opacity="0.1" d="M384.864 390.487H278.967V404.967H384.864V390.487Z" fill="#5C76FF"/>
<path opacity="0.1" d="M384.857 434.483V448.963H302.027C298.431 446.22 294.878 443.404 291.37 440.515C288.943 438.516 286.539 436.467 284.091 434.483H384.857Z" fill="#5C76FF"/>
<path opacity="0.1" d="M384.857 478.471V492.936H376.112C366.285 488.51 356.651 483.681 347.21 478.449L384.857 478.471Z" fill="#5C76FF"/>
<path opacity="0.1" d="M138.164 160.383H117.317V181.203H138.164V160.383Z" fill="#5C76FF"/>
<path opacity="0.1" d="M138.164 208.742H117.317V229.562H138.164V208.742Z" fill="#5C76FF"/>
<path opacity="0.1" d="M138.164 257.101H117.317V277.92H138.164V257.101Z" fill="#5C76FF"/>
<path opacity="0.1" d="M138.164 305.453H117.317V326.272H138.164V305.453Z" fill="#5C76FF"/>
<path opacity="0.1" d="M138.164 353.811H117.317V374.631H138.164V353.811Z" fill="#5C76FF"/>
<path opacity="0.1" d="M138.164 402.17H117.317V422.99H138.164V402.17Z" fill="#5C76FF"/>
<path opacity="0.1" d="M13.1941 218.42V230.33H84.5375V218.42H13.1941ZM20.3043 229.584H14.4842V219.152H20.3483L20.3043 229.584ZM27.4071 229.584H21.5431V219.152H27.4071V229.584ZM34.4953 229.584H28.6312V219.152H34.4953V229.584ZM41.5981 229.584H35.7414V219.152H41.6054L41.5981 229.584ZM48.6936 229.584H42.8295V219.152H48.6936V229.584ZM55.7964 229.584H49.9323V219.152H55.7964V229.584ZM62.8992 229.584H57.0352V219.152H62.8992V229.584ZM69.9947 229.584H64.1307V219.152H69.9947V229.584ZM77.0902 229.584H71.2262V219.152H77.0902V229.584ZM84.1857 229.584H78.3216V219.152H84.1857V229.584Z" fill="#5C76FF"/>
<path opacity="0.1" d="M13.1941 253.075V264.985H84.5375V253.075H13.1941ZM20.3043 264.231H14.4842V253.829H20.3483L20.3043 264.231ZM27.4071 264.231H21.5431V253.829H27.4071V264.231ZM34.4953 264.231H28.6312V253.829H34.4953V264.231ZM41.5981 264.231H35.7414V253.829H41.6054L41.5981 264.231ZM48.6936 264.231H42.8295V253.829H48.6936V264.231ZM55.7964 264.231H49.9323V253.829H55.7964V264.231ZM62.8992 264.231H57.0352V253.829H62.8992V264.231ZM69.9947 264.231H64.1307V253.829H69.9947V264.231ZM77.0902 264.231H71.2262V253.829H77.0902V264.231ZM84.1857 264.231H78.3216V253.829H84.1857V264.231Z" fill="#5C76FF"/>
<path opacity="0.1" d="M13.1941 287.744V299.677H84.5375V287.744H13.1941ZM20.3043 298.901H14.4842V288.491H20.3483L20.3043 298.901ZM27.4071 298.901H21.5431V288.491H27.4071V298.901ZM34.4953 298.901H28.6312V288.491H34.4953V298.901ZM41.5981 298.901H35.7414V288.491H41.6054L41.5981 298.901ZM48.6936 298.901H42.8295V288.491H48.6936V298.901ZM55.7964 298.901H49.9323V288.491H55.7964V298.901ZM62.8992 298.901H57.0352V288.491H62.8992V298.901ZM69.9947 298.901H64.1307V288.491H69.9947V298.901ZM77.0902 298.901H71.2262V288.491H77.0902V298.901ZM84.1857 298.901H78.3216V288.491H84.1857V298.901Z" fill="#5C76FF"/>
<path opacity="0.1" d="M13.1941 322.414V334.31H84.5375V322.414H13.1941ZM20.3043 333.57H14.4842V323.153H20.3483L20.3043 333.57ZM27.4071 333.57H21.5431V323.153H27.4071V333.57ZM34.4953 333.57H28.6312V323.153H34.4953V333.57ZM41.5981 333.57H35.7414V323.153H41.6054L41.5981 333.57ZM48.6936 333.57H42.8295V323.153H48.6936V333.57ZM55.7964 333.57H49.9323V323.153H55.7964V333.57ZM62.8992 333.57H57.0352V323.153H62.8992V333.57ZM69.9947 333.57H64.1307V323.153H69.9947V333.57ZM77.0902 333.57H71.2262V323.153H77.0902V333.57ZM84.1857 333.57H78.3216V323.153H84.1857V333.57Z" fill="#5C76FF"/>
<path opacity="0.1" d="M13.5019 357.076C13.7878 358.196 14.1103 359.316 14.4475 360.422V357.823H20.3115V368.233H17.1742C17.2695 368.474 17.3648 368.738 17.4601 368.965H84.5374V357.076H13.5019ZM27.429 368.233H21.5649V357.823H27.429V368.233ZM34.5171 368.233H28.6531V357.823H34.5171V368.233ZM41.62 368.233H35.7413V357.823H41.6053L41.62 368.233ZM48.7155 368.233H42.8514V357.823H48.7155V368.233ZM55.8183 368.233H49.9542V357.823H55.8183V368.233ZM62.9211 368.233H57.057V357.823H62.9211V368.233ZM70.0166 368.233H64.1525V357.823H70.0166V368.233ZM77.1121 368.233H71.248V357.823H77.1121V368.233ZM84.2076 368.233H78.3435V357.823H84.2076V368.233Z" fill="#5C76FF"/>
<path opacity="0.1" d="M30.0678 391.746C30.2511 391.98 30.427 392.244 30.6176 392.478H34.4952V397.478C34.913 397.976 35.3235 398.473 35.7486 398.942V392.449H41.6127V402.895H39.2377C39.4723 403.137 39.6995 403.393 39.9707 403.627H84.5594V391.746H30.0678ZM48.6935 402.895H42.8295V392.493H48.6935V402.895ZM55.7963 402.895H49.9323V392.493H55.7963V402.895ZM62.8991 402.895H57.0351V392.493H62.8991V402.895ZM69.9946 402.895H64.1306V392.493H69.9946V402.895ZM77.0901 402.895H71.2261V392.493H77.0901V402.895ZM84.1856 402.895H78.3216V392.493H84.1856V402.895Z" fill="#5C76FF"/>
<path opacity="0.1" d="M69.2031 426.408C69.8701 426.789 70.5518 427.14 71.2408 427.521V427.155H77.1049V430.449L78.351 431.027V427.155H84.215V433.487C84.3275 433.543 84.4454 433.587 84.5669 433.619V426.408H69.2031Z" fill="#5C76FF"/>
<path opacity="0.1" d="M553.038 244.444H553.082H553.038ZM507.885 460.5H508.618H507.885ZM460.774 350.569C460.914 351.037 461.031 351.506 461.163 351.967C461.046 351.506 460.921 351.037 460.774 350.569ZM553.038 244.422H553.082H553.038ZM110.303 134.806V137.932H143.046V134.806H110.303ZM507.885 460.5H508.618H507.885ZM460.774 350.569C460.914 351.037 461.031 351.506 461.163 351.967C461.046 351.506 460.921 351.037 460.774 350.569ZM553.038 244.422H553.082H553.038ZM507.885 460.478H508.618H507.885ZM460.774 350.569C460.914 351.037 461.031 351.506 461.163 351.967C461.046 351.506 460.921 351.037 460.774 350.569Z" fill="#5C76FF"/>
<path d="M166.98 279.153C166.98 279.153 169.868 278.75 169.868 274.548C169.868 270.346 171.935 262.499 171.935 262.499C171.935 262.462 173.724 248.832 176.194 246.665C178.664 244.498 181.838 231.775 181.838 231.775C181.838 231.775 182.381 224.872 183.488 223.386C184.594 221.9 186.09 218.262 188.296 213.071C190.502 207.881 199.702 204.287 199.702 204.287C199.702 204.287 216.333 194.653 221.047 191.513C221.475 191.255 221.875 190.953 222.241 190.612C223.062 189.536 226.639 189.514 226.639 189.514C227.013 187.157 227.372 184.448 227.49 181.996C227.49 181.733 227.49 181.469 227.526 181.205C222.271 178.103 218.312 173.211 216.377 167.428C216.289 167.15 216.216 166.857 216.136 166.579C215.821 166.476 215.531 166.308 215.285 166.086C215.039 165.864 214.842 165.593 214.706 165.291C214.281 164.347 214.274 163.241 213.746 162.363C213.13 161.323 211.957 160.767 211.034 159.984C208.703 158.007 208.102 154.676 208.212 151.646C208.285 149.193 208.681 146.719 208.527 144.281L208.483 143.666C208.439 143.3 208.388 142.934 208.322 142.583C207.963 140.767 207.178 139.054 206.738 137.254C206.299 135.453 206.255 133.425 207.281 131.873C208.784 129.596 211.913 129.143 214.662 128.908C217.777 128.645 220.563 128.989 222.557 126.405C223.49 125.054 224.54 123.788 225.694 122.62C226.104 122.239 230.092 119.809 230.092 119.648C233.984 117.848 238.395 117.51 242.516 118.696C244.583 119.297 246.533 120.277 248.63 120.768C253.152 121.837 258.357 120.68 262.198 123.264C264.338 124.728 265.621 127.056 266.823 129.326C267.8 131.195 268.792 133.061 269.799 134.926C271.419 137.993 273.068 141.111 273.75 144.508C273.893 145.247 273.981 145.996 274.014 146.748V146.785C274.014 147.056 274.014 147.326 274.014 147.597V147.941C274.014 148.198 274.014 148.447 273.97 148.673C273.926 148.9 273.933 148.974 273.911 149.127C273.889 149.281 273.852 149.625 273.808 149.859C273.764 150.094 273.676 150.504 273.588 150.826C273.552 150.965 273.501 151.097 273.457 151.228C273.383 151.477 273.295 151.719 273.2 151.96C273.149 152.085 273.097 152.217 273.039 152.341C272.929 152.597 272.797 152.846 272.665 153.073C272.606 153.176 272.562 153.271 272.504 153.366C272.299 153.706 272.074 154.034 271.829 154.347C270.261 156.301 267.952 157.546 266.244 159.376C266.244 159.449 266.244 159.522 266.244 159.588C266.244 159.793 266.244 159.991 266.244 160.196C266.153 164.277 265.065 168.275 263.075 171.841C261.085 175.407 258.252 178.433 254.824 180.656C254.824 180.935 254.787 181.22 254.772 181.498C254.629 183.671 254.656 185.852 254.853 188.021C255.151 187.67 255.525 187.39 255.946 187.203C256.367 187.015 256.825 186.924 257.286 186.937C257.601 186.922 257.917 186.949 258.225 187.018L258.291 186.967V187.033C259.903 187.428 261.89 189.104 263.788 193.87C263.788 193.87 269.564 200.37 273.962 200.1C278.36 199.829 289.495 206.864 289.495 206.864C289.495 206.864 300.358 213.906 302.689 221.08C303.992 225.148 305.554 229.129 307.365 232.998L320.794 260.632L323.272 282.557C323.272 282.557 321.901 292.308 322.172 293.794C322.443 295.28 316.535 308.684 316.535 308.684C316.535 308.684 297.015 342.936 289.04 344.693L288.468 344.29C288.127 344.468 287.765 344.603 287.391 344.693L285.749 343.536C285.65 344.825 285.692 346.121 285.874 347.401C286.973 350.783 285.463 372.855 283.543 377.181C281.622 381.507 282.304 438.233 282.304 438.233L282.575 443.241C282.575 443.241 282.575 443.402 282.509 443.68L282.575 444.866L282.377 444.968C282.172 446.556 282.239 448.168 282.575 449.734C283.264 451.93 283.543 458.138 283.543 458.138C283.543 458.138 289.033 493.188 286.431 500.23C283.829 507.272 281.615 514.988 281.615 514.988C281.615 514.988 278.866 523.773 281.483 525.273C284.1 526.774 291.54 529.292 290.008 532.953C288.615 536.335 283.33 545.397 282.546 546.722L282.612 547.418L283.689 559.079C283.515 560.619 283.097 562.121 282.451 563.53C281.27 566.07 278.976 568.706 274.615 568.42C273.882 568.369 273.031 568.281 272.21 568.171C264.228 567.102 254.398 563.545 254.398 563.545C254.909 563.221 255.377 562.835 255.791 562.395C256.183 562.016 256.494 561.56 256.705 561.057C256.915 560.554 257.021 560.013 257.015 559.467C256.898 557.344 260.878 547.227 261.868 544.738C262.022 544.38 262.102 544.175 262.102 544.175C262.102 544.175 253.028 534.702 254.538 526.306C254.538 526.306 264.58 520.449 261.274 517.236C257.968 514.022 252.06 504.791 252.06 504.791C252.06 504.791 251.789 470.275 252.06 465.121C252.343 461.544 252.173 457.946 251.554 454.412C251.444 453.877 251.312 453.357 251.173 452.845C246.601 453.527 241.986 453.876 237.363 453.892C235.677 453.892 233.962 453.892 232.232 453.789C232.232 454.277 232.21 454.804 232.166 455.371C231.785 463.921 231.074 478.913 230.495 484.484C229.674 492.47 225.137 513.993 225.137 513.993C225.137 513.993 233.794 519.541 223.627 533.216C223.627 533.216 223.627 538.172 224.301 538.889C225.021 541.235 225.601 543.62 226.038 546.034C226.464 548.611 226.639 551.217 225.95 552.571C224.301 555.807 214.406 555.543 214.406 555.543L214.164 555.499C212.296 555.307 210.408 555.486 208.61 556.028C206.811 556.569 205.139 557.462 203.689 558.655C199.929 561.671 185.657 560.346 177.931 559.387C174.904 559.006 172.881 558.655 172.881 558.655C172.783 558.312 172.748 557.955 172.778 557.6C172.859 555.704 174.347 551.546 184.433 547.835C184.433 547.835 193.918 541.466 193.786 535.917H193.984H195.084C194.285 535.873 193.772 535.917 193.772 535.917C193.772 535.917 197.488 522.374 195.971 521.276C194.453 520.178 198.998 505.171 198.998 505.171C198.998 505.171 201.6 479.989 201.739 478.225C201.733 476.711 201.504 475.206 201.058 473.759L201.739 459.953C201.739 459.953 201.871 455.363 201.739 453.87C201.762 452.574 201.867 451.28 202.055 449.997C202.12 449.485 202.186 448.951 202.26 448.423C198.705 447.523 196.396 446.688 196.396 446.688L196.806 398.63C193.786 392.773 193.229 379.926 193.244 370.812C193.244 364.956 193.508 360.622 193.508 360.622L189.381 353.895C189.381 353.895 188.428 345.842 189.938 344.078C190.605 343.28 190.304 342.453 189.755 341.772C189.469 341.546 189.168 341.34 188.853 341.157C188.853 341.157 188.897 341.091 188.948 340.996C188.66 340.756 188.354 340.538 188.032 340.344C188.032 340.344 189.498 338.075 188.186 337.116C186.955 337.951 185.855 338.58 185.019 339.093C185.078 339.627 185.137 339.935 185.137 339.935L184.785 339.202C183.979 339.656 183.488 339.935 183.488 339.935C183.488 339.935 177.022 327.073 177.162 325.177C177.301 323.281 172.764 315.294 172.764 315.294C172.764 315.294 172.214 311.099 169.736 309.342C167.259 307.586 167.816 294.855 167.816 294.855C167.816 294.855 167.127 288.223 165.478 285.514C163.828 282.806 166.98 279.153 166.98 279.153ZM290.682 273.509L290.558 276.576C291.291 275.398 291.818 274.548 291.818 274.548L290.682 273.509Z" fill="url(#paint6_linear)"/>
<path d="M183.136 334.378L184.719 341.113C184.719 341.113 197.4 334.649 199.687 326.436C201.974 318.222 195.861 315.104 195.861 315.104L184.045 320.103L183.136 334.378Z" fill="white"/>
<path opacity="0.1" d="M183.136 334.378L184.719 341.113C184.719 341.113 197.4 334.649 199.687 326.436C201.974 318.222 195.861 315.104 195.861 315.104L184.045 320.103L183.136 334.378Z" fill="black"/>
<path d="M254.303 563.589C254.303 563.589 266.031 567.893 274.095 568.435C278.375 568.72 280.626 566.099 281.784 563.574C282.416 562.17 282.825 560.675 282.993 559.145L281.945 547.542L281.388 541.364L264.258 536.92L261.831 544.329L261.604 544.892C260.629 547.367 256.722 557.432 256.84 559.533C256.844 560.071 256.74 560.604 256.534 561.101C256.327 561.598 256.022 562.048 255.637 562.425C255.244 562.868 254.796 563.259 254.303 563.589Z" fill="white"/>
<path d="M174.193 557.688C174.164 558.041 174.198 558.395 174.296 558.735C174.296 558.735 199.379 562.915 204.51 558.735C205.957 557.514 207.643 556.608 209.461 556.076C211.278 555.544 213.188 555.398 215.065 555.646C215.065 555.646 224.77 555.909 226.39 552.718C227.065 551.378 226.889 548.779 226.471 546.217C226.045 543.816 225.477 541.443 224.77 539.109L224.382 538.802L222.073 536.95L195.04 536.152H194.834C194.966 541.671 185.657 548.003 185.657 548.003C175.769 551.664 174.31 555.8 174.193 557.688Z" fill="white"/>
<path opacity="0.1" d="M174.193 557.688C174.167 558.041 174.204 558.395 174.303 558.735C174.303 558.735 199.379 562.915 204.51 558.735C205.956 557.515 207.641 556.61 209.457 556.078C211.274 555.546 213.181 555.399 215.058 555.646C215.058 555.646 224.77 555.909 226.383 552.718C227.057 551.371 226.889 548.779 226.471 546.217C222.733 546.59 216.832 547.52 214.516 549.738C211.012 553.113 205.074 556.48 201.431 556.744C198.58 556.927 181.523 557.469 174.193 557.688Z" fill="black"/>
<path opacity="0.1" d="M254.303 563.589C254.303 563.589 266.031 567.893 274.095 568.435C278.375 568.72 280.626 566.1 281.776 563.567C278.793 564.57 274.652 565.624 272.475 564.657C269.894 563.515 260.747 562.776 255.615 562.461C255.225 562.888 254.784 563.267 254.303 563.589Z" fill="black"/>
<path d="M236.902 216.71C246.578 212.954 259.024 200.546 255.916 194.748C255.226 193.285 254.816 191.706 254.707 190.092C254.507 187.902 254.477 185.699 254.619 183.504C254.837 179.909 255.27 176.33 255.916 172.787C255.916 172.787 225.709 173.468 227.468 177.911C227.981 179.214 228.062 181.476 227.923 184.009C227.783 186.542 227.417 189.404 227.036 191.827C226.508 195.151 225.98 197.684 225.98 197.684C225.98 197.684 227.827 200.268 228.912 200.407C229.997 200.546 223.019 222.061 236.902 216.71Z" fill="#CF6F80"/>
<path opacity="0.1" d="M261.626 544.892L261.853 545.141C270.884 534.234 281.806 547.828 281.806 547.828L281.967 547.542L281.41 541.364L264.279 536.92L261.853 544.328L261.626 544.892Z" fill="black"/>
<path opacity="0.1" d="M194.827 536.92C194.827 536.92 201.424 536.781 204.943 539.885C208.461 542.989 225.467 540.558 224.734 539.885C224.517 539.551 224.386 539.169 224.353 538.772L222.044 536.92L195.01 536.122C194.908 536.613 194.827 536.92 194.827 536.92Z" fill="black"/>
<path d="M250.389 451.264C250.88 452.477 251.254 453.734 251.503 455.019C252.115 458.537 252.284 462.118 252.009 465.678C251.738 470.802 252.009 505.142 252.009 505.142C252.009 505.142 257.807 514.3 261.04 517.528C264.272 520.757 254.443 526.555 254.443 526.555C252.977 534.9 261.861 544.329 261.861 544.329C270.891 533.421 281.813 547.022 281.813 547.022C281.813 547.022 287.75 536.774 289.231 533.114C290.712 529.453 283.433 526.921 280.875 525.434C278.317 523.948 280.999 515.186 280.999 515.186C280.999 515.186 283.162 507.507 285.727 500.501C288.293 493.495 282.898 458.621 282.898 458.621C282.898 458.621 282.619 452.428 281.952 450.268C281.616 448.71 281.549 447.105 281.754 445.525C281.798 444.99 281.85 444.544 281.886 444.243C281.923 443.943 281.952 443.804 281.952 443.804L281.85 443.629L278.185 436.806C278.185 436.806 248.63 446.967 250.389 451.264Z" fill="url(#paint7_linear)"/>
<path d="M194.827 536.115C194.827 536.115 201.424 535.976 204.943 539.043C208.461 542.11 225.467 539.717 224.734 539.043C224.001 538.37 224.06 533.384 224.06 533.384C234.036 519.783 225.526 514.263 225.526 514.263C225.526 514.263 229.982 492.851 230.789 484.909C231.353 479.36 232.049 464.448 232.423 455.934C232.584 452.274 232.68 449.756 232.68 449.756L224.529 448.116L223.481 447.904L203.821 443.965C203.821 443.965 203.279 447.626 202.912 450.62C202.73 451.898 202.627 453.186 202.605 454.477C202.736 455.942 202.605 460.524 202.605 460.524L201.937 474.265C202.373 475.706 202.598 477.203 202.605 478.708C202.473 480.458 199.914 505.508 199.914 505.508C199.914 505.508 195.465 520.457 196.982 521.533C198.5 522.609 194.827 536.115 194.827 536.115Z" fill="url(#paint8_linear)"/>
<path opacity="0.1" d="M227.468 177.911C227.981 179.214 228.061 181.476 227.922 184.009C231.968 186.443 236.62 187.687 241.342 187.599C246.064 187.511 250.666 186.094 254.618 183.511C254.836 179.914 255.269 176.333 255.916 172.787C255.916 172.787 225.708 173.453 227.468 177.911Z" fill="black"/>
<path d="M215.791 161.733C215.786 164.371 216.201 166.993 217.023 169.5C218.859 175.118 222.625 179.906 227.655 183.019C232.684 186.131 238.654 187.368 244.508 186.511C250.362 185.653 255.725 182.756 259.647 178.332C263.57 173.908 265.8 168.241 265.944 162.333C265.944 162.128 265.944 161.938 265.944 161.733C266.001 158.408 265.394 155.105 264.159 152.016C262.924 148.927 261.086 146.115 258.752 143.744C256.417 141.372 253.633 139.488 250.562 138.202C247.491 136.917 244.194 136.254 240.864 136.254C237.534 136.254 234.237 136.917 231.166 138.202C228.095 139.488 225.311 141.372 222.976 143.744C220.642 146.115 218.804 148.927 217.569 152.016C216.334 155.105 215.727 158.408 215.784 161.733H215.791Z" fill="#CF6F80"/>
<path opacity="0.1" d="M236.902 216.71C246.578 212.954 259.024 200.546 255.916 194.748C255.226 193.285 254.816 191.706 254.707 190.093L241.461 200.963L233.266 207.676L227.036 191.835C226.508 195.158 225.98 197.691 225.98 197.691C225.98 197.691 227.827 200.275 228.912 200.414C229.997 200.553 223.019 222.061 236.902 216.71Z" fill="black"/>
<path d="M202.648 264.754L213.709 450.327L228.135 451.271L265.489 343.668L259.361 215.919L258.071 188.929L241.461 202.552L233.259 209.265L226.845 192.962L214.919 203.343L202.648 264.754Z" fill="url(#paint9_linear)"/>
<path opacity="0.1" d="M250.389 451.264C250.88 452.477 251.254 453.734 251.503 455.019C262 453.401 272.194 450.22 281.747 445.583L281.945 445.481L281.879 444.302L281.842 443.687L278.177 436.864C278.177 436.864 248.63 446.967 250.389 451.264Z" fill="black"/>
<path opacity="0.1" d="M224.36 455.048C227.043 455.504 229.75 455.812 232.467 455.971C232.628 452.311 232.724 449.792 232.724 449.792L224.573 448.153L224.36 455.048Z" fill="black"/>
<path opacity="0.1" d="M202.956 450.656C208.168 452.011 216.216 453.533 223.422 452.582L223.524 447.94L203.865 444.002C203.865 444.002 203.323 447.626 202.956 450.656Z" fill="black"/>
<path opacity="0.1" d="M223.554 453.431C253.607 458.555 281.131 443.863 281.131 443.863L280.868 438.885C280.868 438.885 280.186 382.452 282.077 378.125C283.968 373.799 285.441 351.86 284.371 348.492C283.301 345.125 288.278 294.628 288.278 294.628L289.084 274.131L318.595 262.191L305.401 234.725C303.619 230.874 302.086 226.913 300.813 222.866C298.518 215.736 287.868 208.73 287.868 208.73C287.868 208.73 276.946 201.732 272.629 201.995C268.311 202.259 262.652 195.802 262.652 195.802C258.474 185.166 254.692 189.983 254.692 189.983C254.692 190.488 254.692 189.983 254.897 191.557C256.363 203.233 231.192 240.128 230.833 240.779L228.436 299.094L226.009 372.891L223.554 453.431Z" fill="black"/>
<path d="M224.36 453.431C254.413 458.555 281.945 443.863 281.945 443.863L281.674 438.885C281.674 438.885 280.992 382.452 282.89 378.125C284.789 373.799 286.255 351.86 285.177 348.492C284.1 345.125 289.084 294.628 289.084 294.628L289.898 274.131L319.423 262.148L306.229 234.681C304.451 230.829 302.918 226.868 301.641 222.822C299.354 215.692 288.696 208.686 288.696 208.686C288.696 208.686 277.774 201.688 273.464 201.952C269.154 202.215 263.488 195.759 263.488 195.759C259.302 185.122 254.692 189.939 254.692 189.939C254.692 190.444 255.132 190.671 254.897 191.513C251.672 202.837 231.998 240.084 231.639 240.735L229.212 299.05L226.786 372.847L224.36 453.431Z" fill="white"/>
<path opacity="0.1" d="M232.459 242.397C235.692 241.05 252.815 221.526 252.815 221.526V217.083C253.438 215.619 257.14 216.512 260.145 217.537L258.855 190.546L257.389 191.762C254.178 203.079 232.833 241.745 232.459 242.397Z" fill="black"/>
<path d="M231.646 240.779C234.886 239.432 252.009 219.909 252.009 219.909V215.465C252.632 214.001 256.334 214.894 259.339 215.919L258.042 188.929L256.576 190.144C253.358 201.461 232.005 240.135 231.646 240.779Z" fill="white"/>
<path opacity="0.1" d="M281.131 338.148C280.728 338.148 260.233 335.996 260.233 335.996C260.233 335.996 247.823 360.366 248.637 366.295C249.451 372.225 250.924 377.474 255.916 376.544C260.907 375.614 282.78 377.276 282.78 377.276L281.131 338.148Z" fill="black"/>
<path d="M281.945 336.531C281.542 336.531 261.047 334.378 261.047 334.378C261.047 334.378 248.645 358.755 249.451 364.678C250.257 370.6 251.745 375.856 256.73 374.926C261.714 373.997 283.594 375.658 283.594 375.658L281.945 336.531Z" fill="white"/>
<path d="M266.5 325.089C266.5 325.089 247.691 335.184 247.288 338.265C246.885 341.347 256.861 336.919 259.016 336.384C260.435 336.043 261.879 335.818 263.334 335.711L277.708 336.099L266.5 325.089Z" fill="#CF6F80"/>
<path opacity="0.1" d="M237.708 243.656C236.615 243.656 235.729 242.771 235.729 241.68C235.729 240.588 236.615 239.703 237.708 239.703C238.801 239.703 239.687 240.588 239.687 241.68C239.687 242.771 238.801 243.656 237.708 243.656Z" fill="black"/>
<path d="M237.708 242.851C236.615 242.851 235.729 241.966 235.729 240.874C235.729 239.783 236.615 238.898 237.708 238.898C238.801 238.898 239.687 239.783 239.687 240.874C239.687 241.966 238.801 242.851 237.708 242.851Z" fill="#3F3D56"/>
<path opacity="0.1" d="M234.065 329.217C232.972 329.217 232.086 328.333 232.086 327.241C232.086 326.149 232.972 325.264 234.065 325.264C235.158 325.264 236.044 326.149 236.044 327.241C236.044 328.333 235.158 329.217 234.065 329.217Z" fill="black"/>
<path d="M234.065 328.405C232.972 328.405 232.086 327.52 232.086 326.428C232.086 325.337 232.972 324.452 234.065 324.452C235.158 324.452 236.044 325.337 236.044 326.428C236.044 327.52 235.158 328.405 234.065 328.405Z" fill="#3F3D56"/>
<path opacity="0.1" d="M235.736 286.437C234.643 286.437 233.757 285.552 233.757 284.46C233.757 283.369 234.643 282.484 235.736 282.484C236.829 282.484 237.715 283.369 237.715 284.46C237.715 285.552 236.829 286.437 235.736 286.437Z" fill="black"/>
<path d="M235.736 285.632C234.643 285.632 233.757 284.747 233.757 283.655C233.757 282.563 234.643 281.679 235.736 281.679C236.829 281.679 237.715 282.563 237.715 283.655C237.715 284.747 236.829 285.632 235.736 285.632Z" fill="#3F3D56"/>
<path d="M190.114 335.301C190.114 335.301 188.765 337.321 190.114 338.265C191.462 339.21 189.982 341.494 189.982 341.494C189.982 341.494 193.346 343.463 191.866 345.235C190.385 347.006 191.323 355.007 191.323 355.007L195.369 361.698C195.369 361.698 195.128 366.01 195.113 371.837C195.113 380.929 195.648 393.71 198.609 399.538L198.199 447.347C198.199 447.347 212.368 452.516 224.228 450.942L225.987 374.223C225.987 374.223 223.421 330.718 222.476 322.373C221.923 318.04 221.697 313.672 221.802 309.306C221.802 309.306 222.205 296.246 223.561 290.185C223.561 290.185 225.027 263.926 225.173 256.657C225.239 253.18 225.056 243.034 224.851 233.386C224.624 222.837 224.367 212.888 224.367 212.888L227.043 191.747C227.043 191.747 224.367 191.476 223.561 192.552C223.2 192.889 222.807 193.191 222.388 193.453C217.77 196.571 201.453 206.161 201.453 206.161C201.453 206.161 192.423 209.748 190.26 214.887C188.098 220.026 186.595 223.671 185.547 225.135C184.499 226.6 183.927 233.481 183.927 233.481C183.927 233.481 180.819 246.145 178.393 248.29C175.967 250.435 174.193 264.08 174.193 264.08L195.633 280.917C195.633 280.917 197.517 308.925 197.92 310.009C198.323 311.092 190.114 335.301 190.114 335.301Z" fill="white"/>
<path d="M189.301 335.301C189.301 335.301 187.959 337.321 189.301 338.266C190.642 339.21 189.176 341.494 189.176 341.494C189.176 341.494 192.518 343.485 191.052 345.257C189.586 347.028 190.51 355.029 190.51 355.029L194.556 361.72C194.556 361.72 194.314 366.032 194.292 371.859C194.292 380.951 194.827 393.733 197.789 399.56L197.386 447.369C197.386 447.369 211.577 452.538 223.422 450.964L225.174 374.246C225.174 374.246 222.608 330.74 221.663 322.395C221.109 318.062 220.886 313.694 220.996 309.328C220.996 309.328 221.399 296.268 222.748 290.207C222.748 290.207 224.214 263.948 224.368 256.679C224.433 253.202 224.243 243.056 224.045 233.408C223.818 222.859 223.561 212.91 223.561 212.91L227.094 191.483C227.094 191.483 223.561 191.483 222.748 192.574C222.39 192.915 221.997 193.217 221.575 193.475C216.957 196.593 200.633 206.183 200.633 206.183C200.633 206.183 191.61 209.77 189.447 214.909C187.285 220.048 185.782 223.693 184.727 225.157C183.671 226.622 183.114 233.503 183.114 233.503C183.114 233.503 180.006 246.167 177.58 248.312C175.154 250.457 173.402 264.073 173.402 264.073L194.842 280.91C194.842 280.91 196.726 308.918 197.136 310.001C197.547 311.085 189.301 335.301 189.301 335.301Z" fill="white"/>
<path opacity="0.1" d="M214.977 219.125L213.042 224.762L223.231 235.011C223.004 224.469 222.747 214.513 222.747 214.513L226.28 193.087C226.28 193.087 222.747 193.087 221.934 194.177C221.577 194.517 221.184 194.817 220.761 195.07L212.097 220.033L214.977 219.125Z" fill="black"/>
<path d="M215.791 217.508L213.849 223.144L224.038 233.393C223.81 222.844 223.554 212.896 223.554 212.896L227.094 191.469C227.094 191.469 223.554 191.469 222.748 192.56C222.388 192.898 221.995 193.2 221.575 193.46L212.903 218.415L215.791 217.508Z" fill="white"/>
<path opacity="0.1" d="M215.791 161.733C215.786 164.371 216.201 166.993 217.023 169.5C217.161 169.522 217.303 169.515 217.439 169.481C217.575 169.447 217.703 169.387 217.815 169.303C218.005 162.714 221.252 156.528 225.247 151.265C226.369 149.676 227.729 148.268 229.279 147.092C230.846 145.917 232.795 145.366 234.747 145.548C236.946 145.848 238.888 147.341 241.109 147.532C244.041 147.773 246.666 145.745 249.576 145.643C250.759 145.654 251.926 145.917 252.999 146.414C254.072 146.912 255.027 147.632 255.799 148.527C257.328 150.333 258.463 152.437 259.134 154.706C260.287 158.145 260.914 161.738 260.996 165.364C261.033 167.414 261.23 169.983 263.136 170.73C262.993 169.223 263.164 167.702 263.64 166.264C264.116 164.826 264.885 163.503 265.9 162.377L265.944 162.333C265.944 162.128 265.944 161.938 265.944 161.733C266.001 158.408 265.394 155.105 264.159 152.016C262.924 148.927 261.086 146.115 258.752 143.744C256.417 141.372 253.633 139.488 250.562 138.202C247.491 136.917 244.194 136.254 240.864 136.254C237.534 136.254 234.237 136.917 231.166 138.202C228.095 139.488 225.311 141.372 222.976 143.744C220.642 146.115 218.804 148.927 217.569 152.016C216.334 155.105 215.727 158.408 215.784 161.733H215.791Z" fill="black"/>
<path d="M230.481 121.961C234.29 120.172 238.622 119.833 242.663 121.01C244.694 121.61 246.607 122.583 248.667 123.074C253.065 124.135 258.196 122.986 261.971 125.556C264.067 127.02 265.328 129.333 266.501 131.58L269.433 137.158C271.031 140.211 272.643 143.315 273.31 146.675C273.977 150.035 273.574 153.798 271.441 156.499C269.887 158.468 267.593 159.705 265.907 161.557C264.897 162.684 264.131 164.007 263.657 165.443C263.182 166.879 263.01 168.397 263.151 169.903C261.238 169.171 261.054 166.594 261.01 164.544C260.929 160.918 260.301 157.325 259.149 153.886C258.48 151.617 257.344 149.512 255.813 147.707C255.041 146.813 254.086 146.093 253.013 145.596C251.94 145.099 250.773 144.835 249.59 144.823C246.658 144.925 244.027 146.946 241.124 146.704C238.925 146.521 236.975 145.021 234.762 144.728C232.81 144.543 230.859 145.094 229.293 146.272C227.744 147.447 226.386 148.854 225.269 150.445C221.267 155.708 218.02 161.88 217.829 168.483C217.001 169.09 215.806 168.3 215.396 167.363C214.985 166.426 214.97 165.328 214.45 164.434C213.849 163.402 212.698 162.853 211.796 162.077C209.51 160.108 208.938 156.792 209.026 153.783C209.114 150.774 209.7 147.722 209.128 144.764C208.784 142.949 208.007 141.251 207.582 139.457C207.157 137.664 207.105 135.65 208.109 134.106C209.575 131.837 212.661 131.39 215.352 131.178C218.408 130.914 221.142 131.251 223.092 128.681C224.007 127.341 225.037 126.082 226.171 124.919C226.559 124.538 230.481 122.122 230.481 121.961Z" fill="#512E4E"/>
<path opacity="0.1" d="M310.151 276.335L317.811 262.191L320.237 284.014C320.237 284.014 318.888 293.706 319.159 295.192C319.431 296.678 313.633 310.001 313.633 310.001C313.633 310.001 294.479 344.071 286.658 345.828L260.233 326.97L267.241 318.083C267.241 318.083 269.667 317.139 270.275 318.083C270.275 318.083 283.286 295.726 284.635 294.109C285.984 292.491 285.72 289.262 285.72 289.262C285.72 289.262 287.743 287.11 287.068 285.09C286.394 283.069 290.975 276.064 290.975 276.064L286.797 272.162L310.151 276.335Z" fill="black"/>
<path d="M317.408 260.581L319.431 262.192L321.857 284.014C321.857 284.014 320.508 293.706 320.779 295.192C321.051 296.678 315.245 310.001 315.245 310.001C315.245 310.001 296.099 344.071 288.278 345.828L261.846 326.97L268.861 318.083C268.861 318.083 271.287 317.139 271.895 318.083C271.895 318.083 284.906 295.726 286.255 294.109C287.604 292.491 287.332 289.262 287.332 289.262C287.332 289.262 289.356 287.11 288.681 285.09C288.007 283.069 292.595 276.064 292.595 276.064L288.417 272.162L317.408 260.581Z" fill="white"/>
<path opacity="0.1" d="M191.866 346.069C190.4 347.848 191.323 355.835 191.323 355.835L195.37 362.525C195.37 362.525 195.128 366.844 195.113 372.664L201.915 374.787C202.53 374.979 203.182 375.021 203.816 374.91C204.451 374.799 205.049 374.538 205.562 374.149C206.075 373.76 206.487 373.254 206.765 372.674C207.042 372.093 207.176 371.455 207.156 370.812L205.984 333.031L190.114 339.093C191.463 340.03 189.982 342.328 189.982 342.328C189.982 342.328 193.347 344.29 191.866 346.069Z" fill="black"/>
<path d="M191.052 345.256C189.586 347.035 190.51 355.029 190.51 355.029L194.556 361.72C194.556 361.72 194.314 366.032 194.292 371.859L201.219 374.019C201.821 374.205 202.459 374.246 203.08 374.137C203.701 374.028 204.287 373.772 204.789 373.391C205.291 373.01 205.694 372.515 205.966 371.946C206.238 371.378 206.369 370.753 206.35 370.124L205.17 332.226L189.293 338.287C190.649 339.224 189.169 341.516 189.169 341.516C189.169 341.516 192.518 343.485 191.052 345.256Z" fill="white"/>
<path d="M185.797 327.248C185.797 327.248 186.874 334.122 189.572 334.525C192.269 334.927 193.478 345.644 196.169 345.264C198.859 344.883 197.078 335.301 196.982 333.441C196.887 331.582 199.914 323.881 197.649 322.131C195.384 320.382 188.215 322.131 188.215 322.131L185.797 327.248Z" fill="#CF6F80"/>
<path opacity="0.1" d="M180.057 274.314L174.97 264.066C174.97 264.066 172.947 271.876 172.947 276.049C172.947 280.222 170.118 280.632 170.118 280.632C170.118 280.632 167.017 284.292 168.652 286.957C170.286 289.621 170.946 296.254 170.946 296.254C170.946 296.254 170.411 308.911 172.837 310.66C175.263 312.41 175.769 316.59 175.769 316.59C175.769 316.59 180.226 324.532 180.087 326.421C179.947 328.31 186.288 341.099 186.288 341.099C186.288 341.099 183.187 325.206 201.256 318.339C201.256 318.339 201.395 312.944 200.046 311.465C198.698 309.987 196.594 309.313 197.913 301.839C199.233 294.365 198.294 285.434 198.294 283.64C198.294 281.847 194.248 270.661 194.248 270.661L180.057 274.314Z" fill="black"/>
<path d="M177.858 262.601L173.416 264.066C173.416 264.066 171.386 271.876 171.386 276.049C171.386 280.222 168.556 280.632 168.556 280.632C168.556 280.632 165.456 284.292 167.09 286.957C168.725 289.621 169.377 296.254 169.377 296.254C169.377 296.254 168.842 308.911 171.268 310.66C173.695 312.41 174.237 316.59 174.237 316.59C174.237 316.59 178.686 324.532 178.547 326.421C178.408 328.31 184.756 341.099 184.756 341.099C184.756 341.099 181.648 325.206 199.724 318.339C199.724 318.339 199.856 312.944 198.507 311.465C197.158 309.987 195.054 309.313 196.374 301.839C197.693 294.365 196.755 285.434 196.755 283.64C196.755 281.847 192.709 270.661 192.709 270.661L177.858 262.601Z" fill="white"/>
<path opacity="0.1" d="M275.971 528.238C275.971 528.238 268.89 523.795 264.243 527.023C259.595 530.251 275.971 528.238 275.971 528.238Z" fill="black"/>
<path opacity="0.1" d="M220.952 514.498C220.952 514.498 214.685 513.692 209.422 519.351C204.159 525.01 220.952 514.498 220.952 514.498Z" fill="black"/>
<g opacity="0.1">
<path opacity="0.1" d="M211.782 160.474C212.683 161.25 213.841 161.806 214.442 162.839C214.955 163.724 214.97 164.815 215.381 165.767C215.791 166.718 216.986 167.494 217.814 166.894C218.005 160.306 221.259 154.12 225.254 148.849C226.371 147.258 227.729 145.851 229.278 144.676C230.847 143.499 232.8 142.948 234.754 143.132C236.953 143.432 238.888 144.925 241.109 145.108C244.041 145.357 246.673 143.33 249.583 143.227C250.765 143.239 251.932 143.503 253.004 144.002C254.076 144.5 255.029 145.222 255.798 146.119C257.329 147.921 258.465 150.023 259.134 152.29C260.286 155.729 260.913 159.322 260.996 162.948C261.039 164.991 261.23 167.538 263.121 168.3C263.077 168.84 263.077 169.384 263.121 169.925C261.215 169.193 261.025 166.616 260.981 164.566C260.899 160.94 260.272 157.347 259.119 153.908C258.45 151.639 257.314 149.534 255.784 147.729C255.012 146.835 254.059 146.115 252.987 145.618C251.915 145.121 250.75 144.857 249.568 144.845C246.636 144.947 243.997 146.968 241.094 146.726C238.895 146.543 236.946 145.042 234.739 144.75C232.785 144.566 230.833 145.116 229.264 146.294C227.714 147.469 226.356 148.876 225.24 150.467C221.245 155.73 217.99 161.901 217.8 168.505C216.971 169.112 215.776 168.322 215.366 167.385C214.956 166.447 214.941 165.349 214.428 164.456C213.827 163.424 212.669 162.875 211.767 162.099C209.48 160.13 208.908 156.814 208.996 153.805C208.996 153.71 208.996 153.615 208.996 153.527C209.135 156.133 209.832 158.79 211.782 160.474Z" fill="black"/>
<path opacity="0.1" d="M265.892 159.954C267.578 158.102 269.879 156.865 271.426 154.903C272.728 153.166 273.472 151.076 273.559 148.908C273.79 151.617 273.032 154.318 271.426 156.514C269.879 158.483 267.578 159.72 265.892 161.572C264.273 163.384 263.301 165.68 263.128 168.102C263.016 166.628 263.203 165.147 263.678 163.747C264.153 162.347 264.906 161.057 265.892 159.954Z" fill="black"/>
<path opacity="0.1" d="M207.567 137.854C207.999 139.647 208.769 141.353 209.121 143.161C209.329 144.369 209.405 145.597 209.348 146.821C209.323 146.124 209.247 145.429 209.121 144.742C208.769 142.927 207.999 141.229 207.567 139.435C207.315 138.446 207.233 137.421 207.325 136.404C207.37 136.893 207.451 137.377 207.567 137.854Z" fill="black"/>
</g>
</g>
<defs>
<linearGradient id="paint0_linear" x1="64.1343" y1="59.9091" x2="102.975" y2="70.1046" gradientUnits="userSpaceOnUse">
<stop stop-color="#2196F3"/>
<stop offset="1" stop-color="#5C76FF"/>
</linearGradient>
<linearGradient id="paint1_linear" x1="47.4584" y1="89.5596" x2="119.094" y2="106.089" gradientUnits="userSpaceOnUse">
<stop stop-color="#2196F3"/>
<stop offset="1" stop-color="#5C76FF"/>
</linearGradient>
<linearGradient id="paint2_linear" x1="456.138" y1="-240.2" x2="1057.7" y2="26.7217" gradientUnits="userSpaceOnUse">
<stop stop-color="#2196F3"/>
<stop offset="1" stop-color="#5C76FF"/>
</linearGradient>
<linearGradient id="paint3_linear" x1="47.4584" y1="167.683" x2="109.466" y2="196.553" gradientUnits="userSpaceOnUse">
<stop stop-color="#2196F3"/>
<stop offset="1" stop-color="#5C76FF"/>
</linearGradient>
<linearGradient id="paint4_linear" x1="46.5788" y1="163.003" x2="122.432" y2="173.257" gradientUnits="userSpaceOnUse">
<stop stop-color="#2196F3"/>
<stop offset="1" stop-color="#5C76FF"/>
</linearGradient>
<linearGradient id="paint5_linear" x1="393.792" y1="270.39" x2="590.791" y2="355.361" gradientUnits="userSpaceOnUse">
<stop stop-color="#2196F3"/>
<stop offset="1" stop-color="#5C76FF"/>
</linearGradient>
<linearGradient id="paint6_linear" x1="244.144" y1="568.457" x2="244.144" y2="118.001" gradientUnits="userSpaceOnUse">
<stop stop-color="#808080" stop-opacity="0.25"/>
<stop offset="0.54" stop-color="#808080" stop-opacity="0.12"/>
<stop offset="1" stop-color="#808080" stop-opacity="0.1"/>
</linearGradient>
<linearGradient id="paint7_linear" x1="269.871" y1="386.707" x2="230.618" y2="391.323" gradientUnits="userSpaceOnUse">
<stop stop-color="#2196F3"/>
<stop offset="1" stop-color="#5C76FF"/>
</linearGradient>
<linearGradient id="paint8_linear" x1="213.754" y1="400.055" x2="175.88" y2="404.971" gradientUnits="userSpaceOnUse">
<stop stop-color="#2196F3"/>
<stop offset="1" stop-color="#5C76FF"/>
</linearGradient>
<linearGradient id="paint9_linear" x1="234.069" y1="69.6819" x2="170.534" y2="74.7243" gradientUnits="userSpaceOnUse">
<stop stop-color="#2196F3"/>
<stop offset="1" stop-color="#5C76FF"/>
</linearGradient>
<clipPath id="clip0">
<rect width="810" height="573" fill="white"/>
</clipPath>
</defs>
</svg>
