<svg width="264" height="573" viewBox="0 0 264 573" fill="none" xmlns="http://www.w3.org/2000/svg">
<g opacity="0.3" clip-path="url(#clip0)">
<path opacity="0.1" d="M153.126 558.036C202.349 558.036 242.252 552.907 242.252 546.58C242.252 540.252 202.349 535.123 153.126 535.123C103.903 535.123 64 540.252 64 546.58C64 552.907 103.903 558.036 153.126 558.036Z" fill="#5C76FF"/>
<path opacity="0.1" d="M-443.702 247.57V348.841H-284.808V247.57H-443.702ZM-443.702 351.967V438.934C-442.793 439.124 -441.891 439.307 -440.997 439.461C-439.78 439.695 -438.571 439.907 -437.332 440.09C-437.097 440.127 -436.856 440.163 -436.599 440.185C-436.115 440.266 -435.617 440.332 -435.133 440.398C-433.909 440.566 -432.692 440.705 -431.468 440.815C-430.889 440.873 -430.302 440.925 -429.716 440.969L-428.301 441.078C-427.532 441.137 -426.769 441.181 -426.014 441.203C-425.545 441.203 -425.076 441.247 -424.592 441.261C-424.226 441.261 -423.859 441.261 -423.478 441.261C-423.097 441.261 -422.555 441.261 -422.093 441.261C-421.462 441.261 -420.832 441.261 -420.209 441.261H-419.366C-418.736 441.261 -418.105 441.261 -417.482 441.203H-417.438C-417.006 441.203 -416.566 441.203 -416.126 441.144C-416.004 441.152 -415.882 441.152 -415.76 441.144C-415.393 441.144 -415.027 441.144 -414.675 441.093H-414.418L-411.963 440.903C-411.156 440.83 -410.343 440.734 -409.522 440.647L-407.85 440.449C-401.051 439.497 -394.328 438.069 -387.73 436.174C-372.908 432.045 -358.409 426.269 -343.595 422.038C-324.442 416.584 -303.28 413.905 -284.772 420.574V351.967H-443.702ZM-284.808 134.828V0.00733306C-302.204 -0.180893 -319.553 1.85112 -336.434 6.05402C-376.668 16.1489 -412.769 38.0443 -443.702 66.0084V134.821H-435.727V137.946H-443.702V244.444H-284.808V137.954H-402.983V134.828H-284.808ZM-80.7177 89.2874C-90.6718 88.936 -100.567 85.7882 -109.517 80.9275C-126.633 71.6305 -140.304 57.2751 -155.579 45.1598C-187.319 19.9262 -226.681 4.69973 -267.062 0.922388V134.828H-40.2338L-39.6694 134.235L-80.7177 89.2874ZM-60.0542 85.6272L-38.1447 109.638V79.3316C-45.4821 80.2394 -51.9106 82.3989 -60.0249 85.5979L-60.0542 85.6272ZM-38.1447 460.529V351.967H-84.8298C-84.9544 351.506 -85.079 351.037 -85.2256 350.569C-85.0864 351.037 -84.9691 351.506 -84.8371 351.967H-267.033V430.478C-265.303 431.76 -263.595 433.107 -261.902 434.475C-260.077 435.94 -258.273 437.484 -256.463 438.999L-254.638 440.507C-253.766 441.24 -252.886 441.972 -251.999 442.66C-250.24 444.085 -248.463 445.49 -246.67 446.876C-245.783 447.608 -244.874 448.267 -243.973 448.955C-229.659 459.884 -214.56 469.747 -198.797 478.464C-195.264 480.416 -191.7 482.322 -188.103 484.181C-185.706 485.404 -183.294 486.619 -180.875 487.797C-177.24 489.569 -173.575 491.277 -169.88 492.922C-135.82 508.191 -99.8043 518.669 -62.8617 524.056C-54.6569 525.266 -46.4203 526.218 -38.152 526.911V460.522H-37.419L-38.1447 460.529ZM-267.033 137.954V244.444H-38.1154V137.954H-267.033ZM-267.033 247.57V348.841H-38.1154V247.57H-267.033ZM-20.3474 79.1999V113.006L7.61682 82.3623C-1.64838 80.8689 -10.9698 79.8026 -20.3474 79.1633V79.1999ZM-20.3474 247.607V348.841H202.303V247.57L-20.3474 247.607ZM201.489 468.567L202.274 351.967H-20.3474V528.075C-6.0061 528.676 8.35724 528.505 22.6801 527.562H22.9293C29.7707 527.133 36.5803 526.508 43.3582 525.688H43.5121C79.6716 521.485 115.029 512.063 148.478 497.717L201.489 468.567ZM245.235 264.246C244.399 262.277 243.527 260.322 242.64 258.39C240.984 254.729 239.232 251.172 237.429 247.614H220.056V348.841H263.978C263.956 320.174 256.692 290.892 245.257 264.209L245.235 264.246ZM220.056 352.003V452.293C232.429 440.449 242.882 426.899 250.41 411.409C259.463 392.756 263.604 372.559 263.941 351.989L220.056 352.003ZM220.056 218.098V244.451H235.801C231.038 235.379 225.79 226.57 220.078 218.061L220.056 218.098ZM69.0573 99.0675C67.8991 98.6283 66.741 98.1818 65.5755 97.7498C53.2837 93.2165 40.7229 89.4466 27.965 86.4617L-14.8278 133.364L-15.6488 134.235L-15.099 134.835H137.205C115.993 120.253 93.125 108.235 69.0793 99.0309L69.0573 99.0675ZM141.669 137.99H-17.2247L-20.3474 140.845V244.444H7.02307H7.06705H202.332V194.263C184.669 172.928 164.281 153.997 141.691 137.954L141.669 137.99Z" fill="url(#paint0_linear)"/>
<path opacity="0.1" d="M82.1707 134.828H52.1177V125.502H65.5902V97.7205C66.7581 98.1451 67.9212 98.5819 69.0793 99.0309V125.502H82.1707V134.828Z" fill="#5C76FF"/>
<path opacity="0.1" d="M154.577 244.444H7.03765C7.03765 244.444 7.03766 244.444 7.08897 244.481L7.02302 244.444H-20.3474V142.434H-12.5922V217.834H22.8486V173.18H52.1248V137.961H82.178V173.209H111.454V217.864H154.577V244.444Z" fill="#5C76FF"/>
<path opacity="0.1" d="M-20.3474 247.57V348.841H154.577V247.57H-20.3474ZM202.061 468.047L202.303 387.888H154.577V352.018H-20.3474V528.075C-6.00615 528.676 8.35717 528.505 22.68 527.562H22.9292C29.7706 527.133 36.5802 526.508 43.3581 525.688H43.512C79.6716 521.485 115.029 512.063 148.478 497.717" fill="#5C76FF"/>
<path opacity="0.1" d="M223.164 351.974H263.971C263.612 372.537 259.478 392.734 250.432 411.387C242.904 426.884 232.444 440.434 220.086 452.271V387.851H223.164V351.974Z" fill="#5C76FF"/>
<path opacity="0.1" d="M263.993 348.841H223.164V264.209H245.257C256.692 290.892 263.956 320.174 263.993 348.841Z" fill="#5C76FF"/>
<path opacity="0.1" d="M43.5341 257.387H22.6874V278.206H43.5341V257.387Z" fill="#5C76FF"/>
<path opacity="0.1" d="M123.117 257.387H102.27V278.206H123.117V257.387Z" fill="#5C76FF"/>
<path opacity="0.1" d="M43.5341 308.74H22.6874V329.559H43.5341V308.74Z" fill="#5C76FF"/>
<path opacity="0.1" d="M123.117 308.74H102.27V329.559H123.117V308.74Z" fill="#5C76FF"/>
<path opacity="0.1" d="M43.5341 360.085H22.6874V380.904H43.5341V360.085Z" fill="#5C76FF"/>
<path opacity="0.1" d="M123.117 360.085H102.27V380.904H123.117V360.085Z" fill="#5C76FF"/>
<path opacity="0.1" d="M43.5341 411.438H22.6874V432.257H43.5341V411.438Z" fill="#5C76FF"/>
<path opacity="0.1" d="M123.117 411.438H102.27V432.257H123.117V411.438Z" fill="#5C76FF"/>
<path opacity="0.1" d="M43.5341 462.791H22.6874V483.61H43.5341V462.791Z" fill="#5C76FF"/>
<path opacity="0.1" d="M123.117 462.791H102.27V483.61H123.117V462.791Z" fill="#5C76FF"/>
<path opacity="0.1" d="M22.6874 527.562V514.136H43.5268V525.651L22.6874 527.562Z" fill="#5C76FF"/>
<path opacity="0.1" d="M7.03769 244.444H7.08173H7.03769ZM-38.1154 460.5H-37.3824H-38.1154ZM-85.2257 350.569C-85.0864 351.037 -84.9691 351.506 -84.8372 351.967C-84.9544 351.506 -85.0791 351.037 -85.2257 350.569ZM7.03769 244.422H7.08173H7.03769ZM-435.697 134.806V137.932H-402.954V134.806H-435.697ZM-38.1154 460.5H-37.3824H-38.1154ZM-85.2257 350.569C-85.0864 351.037 -84.9691 351.506 -84.8372 351.967C-84.9544 351.506 -85.0791 351.037 -85.2257 350.569ZM7.03769 244.422H7.08173H7.03769ZM-38.1154 460.478H-37.3824H-38.1154ZM-85.2257 350.569C-85.0864 351.037 -84.9691 351.506 -84.8372 351.967C-84.9544 351.506 -85.0791 351.037 -85.2257 350.569Z" fill="#5C76FF"/>
<path d="M155.242 325.862H150.646V429.205H155.242V325.862Z" fill="#535461"/>
<path d="M183.706 429.013L183.42 433.669L183.009 440.257L182.841 442.995L182.438 449.583L182.262 452.321L181.851 458.91L177.219 533.629C177.017 536.844 175.597 539.862 173.246 542.067C170.896 544.273 167.792 545.502 164.567 545.503H140.48C137.256 545.502 134.153 544.273 131.804 542.067C129.454 539.861 128.036 536.844 127.836 533.629L123.225 458.858L122.815 452.27L122.646 449.532L122.236 442.944L122.067 440.206L121.657 433.618L121.364 428.962C121.313 428.066 121.446 427.169 121.754 426.326C122.063 425.483 122.541 424.712 123.159 424.06C123.776 423.408 124.521 422.889 125.347 422.535C126.172 422.181 127.062 421.999 127.961 422H177.226C178.121 422.008 179.005 422.199 179.824 422.561C180.643 422.923 181.378 423.449 181.985 424.106C182.593 424.763 183.059 425.538 183.354 426.382C183.65 427.226 183.77 428.121 183.706 429.013Z" fill="#3F3D56"/>
<path d="M183.836 433.546L183.426 440.112H122.454L122.044 433.546H183.836Z" fill="#9D9CB5"/>
<path d="M183.257 442.85L182.854 449.424H123.033L122.623 442.85H183.257Z" fill="#9D9CB5"/>
<path d="M182.678 452.169L182.275 458.735H123.613L123.202 452.169H182.678Z" fill="#9D9CB5"/>
<path d="M115.029 364.594C141.791 383.935 152.962 414.183 152.962 414.183C152.962 414.183 120.71 413.078 93.9405 393.737C67.1711 374.396 56.0221 344.156 56.0221 344.156C56.0221 344.156 88.2597 345.254 115.029 364.594Z" fill="url(#paint1_linear)"/>
<path d="M56 344.156C56 344.156 89.4837 362.713 100.222 378.079C110.961 393.444 152.962 414.183 152.962 414.183" stroke="#535461" stroke-width="2" stroke-miterlimit="10"/>
<path d="M132.306 325.635C146.871 336.155 152.962 352.618 152.962 352.618C152.962 352.618 135.406 352.018 120.834 341.498C106.262 330.979 100.186 314.508 100.186 314.508C100.186 314.508 117.734 315.108 132.306 325.635Z" fill="url(#paint2_linear)"/>
<path d="M100.186 314.508C100.186 314.508 118.408 324.61 124.25 332.97C130.092 341.33 152.962 352.618 152.962 352.618" stroke="#535461" stroke-width="2" stroke-miterlimit="10"/>
<path d="M174.109 351.784C157.375 370.151 153.834 394.154 153.834 394.154C153.834 394.154 177.43 388.371 194.15 369.997C210.869 351.623 214.424 327.626 214.424 327.626C214.424 327.626 190.844 333.417 174.109 351.784Z" fill="url(#paint3_linear)"/>
<path d="M214.439 327.634C214.439 327.634 192.64 346.462 187.098 359.434C181.556 372.405 153.834 394.154 153.834 394.154" stroke="#535461" stroke-width="2" stroke-miterlimit="10"/>
</g>
<defs>
<linearGradient id="paint0_linear" x1="-89.8619" y1="-240.2" x2="511.701" y2="26.7217" gradientUnits="userSpaceOnUse">
<stop stop-color="#2196F3"/>
<stop offset="1" stop-color="#5C76FF"/>
</linearGradient>
<linearGradient id="paint1_linear" x1="104.492" y1="312.325" x2="185.978" y2="349.699" gradientUnits="userSpaceOnUse">
<stop stop-color="#2196F3"/>
<stop offset="1" stop-color="#5C76FF"/>
</linearGradient>
<linearGradient id="paint2_linear" x1="126.574" y1="297.185" x2="170.931" y2="317.538" gradientUnits="userSpaceOnUse">
<stop stop-color="#2196F3"/>
<stop offset="1" stop-color="#5C76FF"/>
</linearGradient>
<linearGradient id="paint3_linear" x1="184.129" y1="297.386" x2="240.63" y2="314.435" gradientUnits="userSpaceOnUse">
<stop stop-color="#2196F3"/>
<stop offset="1" stop-color="#5C76FF"/>
</linearGradient>
<clipPath id="clip0">
<rect width="810" height="573" fill="white" transform="translate(-546)"/>
</clipPath>
</defs>
</svg>
