<svg width="16" height="14" viewBox="0 0 16 14" fill="none" xmlns="http://www.w3.org/2000/svg">
<path d="M15.037 4.46203H13.5247L10.2162 0.326432C10.068 0.14118 9.79764 0.111073 9.61231 0.259344C9.427 0.407586 9.39695 0.677974 9.54522 0.863284L12.4242 4.46203H3.84243L6.72145 0.863284C6.8697 0.677974 6.83965 0.407557 6.65437 0.259344C6.46903 0.111073 6.19864 0.141151 6.05043 0.326432L2.74192 4.46203H1.22968C0.992373 4.46203 0.799988 4.65442 0.799988 4.89172V5.75109C0.799988 5.9884 0.992373 6.18078 1.22968 6.18078H15.037C15.2743 6.18078 15.4667 5.9884 15.4667 5.75109V4.89172C15.4667 4.65442 15.2743 4.46203 15.037 4.46203Z" fill="#2196F3"/>
<path d="M3.39461 12.7441C3.44732 12.9286 3.61593 13.0558 3.80777 13.0558H12.4588C12.6507 13.0558 12.8193 12.9286 12.872 12.7441L14.5017 7.04016H1.76492L3.39461 12.7441ZM10.1014 10.8367L10.5311 8.25861C10.5701 8.02452 10.7915 7.86628 11.0255 7.90541C11.2596 7.94442 11.4178 8.1658 11.3788 8.39989L10.9491 10.978C10.914 11.1882 10.732 11.3372 10.5257 11.3372C10.5023 11.3372 10.4785 11.3352 10.4546 11.3312C10.2205 11.2922 10.0624 11.0708 10.1014 10.8367ZM7.70361 8.32922C7.70361 8.09192 7.89599 7.89954 8.13329 7.89954C8.3706 7.89954 8.56298 8.09192 8.56298 8.32922V10.9073C8.56298 11.1447 8.3706 11.337 8.13329 11.337C7.89599 11.337 7.70361 11.1447 7.70361 10.9073V8.32922ZM5.26968 7.90541C5.50381 7.86642 5.72515 8.02452 5.76417 8.25861L6.19386 10.8367C6.23287 11.0708 6.07475 11.2922 5.84065 11.3312C5.81676 11.3352 5.79296 11.3372 5.7695 11.3372C5.56322 11.3372 5.3812 11.1882 5.34617 10.978L4.91648 8.39989C4.87746 8.1658 5.03559 7.9444 5.26968 7.90541Z" fill="#2196F3"/>
</svg>
