<svg width="20" height="18" viewBox="0 0 20 18" fill="none" xmlns="http://www.w3.org/2000/svg">
<path d="M19.4141 6.07031H17.3519L12.8404 0.430853C12.6382 0.178235 12.2695 0.137181 12.0168 0.339368C11.7641 0.541517 11.7231 0.910228 11.9253 1.16292L15.8512 6.07031H4.14879L8.07473 1.16292C8.27687 0.910228 8.2359 0.541478 7.98324 0.339368C7.73051 0.137181 7.3618 0.178196 7.15969 0.430853L2.64809 6.07031H0.585938C0.262344 6.07031 0 6.33265 0 6.65624V7.82812C0 8.15171 0.262344 8.41406 0.585938 8.41406H19.4141C19.7377 8.41406 20 8.15171 20 7.82812V6.65624C20 6.33265 19.7377 6.07031 19.4141 6.07031Z" fill="#2196F3"/>
<path d="M3.5381 17.3641C3.60998 17.6157 3.8399 17.7891 4.1015 17.7891H15.8984C16.16 17.7891 16.3899 17.6157 16.4618 17.3641L18.6841 9.58594H1.3158L3.5381 17.3641ZM12.6837 14.7631L13.2696 11.2475C13.3228 10.9282 13.6247 10.7125 13.9439 10.7658C14.2631 10.819 14.4788 11.1209 14.4256 11.4401L13.8396 14.9557C13.7919 15.2423 13.5436 15.4455 13.2624 15.4455C13.2304 15.4455 13.1979 15.4429 13.1653 15.4374C12.8461 15.3842 12.6305 15.0823 12.6837 14.7631ZM9.414 11.3438C9.414 11.0202 9.67634 10.7578 9.99994 10.7578C10.3235 10.7578 10.5859 11.0202 10.5859 11.3438V14.8594C10.5859 15.183 10.3235 15.4453 9.99994 15.4453C9.67634 15.4453 9.414 15.183 9.414 14.8594V11.3438ZM6.09501 10.7658C6.41427 10.7127 6.71611 10.9282 6.76931 11.2475L7.35525 14.7631C7.40845 15.0823 7.19283 15.3842 6.87361 15.4374C6.84103 15.4428 6.80857 15.4455 6.77658 15.4455C6.49529 15.4455 6.24709 15.2424 6.19931 14.9557L5.61337 11.4401C5.56017 11.1209 5.7758 10.819 6.09501 10.7658Z" fill="#2196F3"/>
</svg>
