<svg width="16" height="16" viewBox="0 0 16 16" fill="none" xmlns="http://www.w3.org/2000/svg">
<path d="M14.9369 1.20473e-06H0.67246C0.420715 -0.000474685 0.190068 0.140071 0.0750612 0.363897C-0.0415314 0.590737 -0.0210682 0.863896 0.127885 1.07107L5.35377 8.43289C5.35552 8.43543 5.35742 8.43781 5.35917 8.44035C5.54905 8.69669 5.65184 9.00729 5.65231 9.32629V15.3284C5.6512 15.506 5.721 15.6769 5.84616 15.803C5.97148 15.9289 6.14184 16 6.31951 16C6.40977 15.9998 6.49924 15.9819 6.58268 15.9472L9.51922 14.8276C9.78223 14.7471 9.95688 14.4989 9.95688 14.2V9.32629C9.95736 9.00729 10.0602 8.69669 10.2499 8.44035C10.2516 8.43781 10.2535 8.43543 10.2553 8.43289L15.4813 1.07091C15.6303 0.863896 15.6507 0.590895 15.5341 0.364055C15.4193 0.140071 15.1885 -0.000474685 14.9369 1.20473e-06Z" fill="black" fill-opacity="0.5"/>
</svg>
