<svg width="7" height="13" viewBox="0 0 7 13" fill="none" xmlns="http://www.w3.org/2000/svg">
<g opacity="0.5">
<path d="M1.86977 9.08045L1.89556 4.56762L1.18579 4.98656L1.01623 6.32164C0.9836 6.57934 0.763907 6.76765 0.510596 6.76765C0.489167 6.76765 0.467707 6.76639 0.445817 6.76351C0.166166 6.72817 -0.0316691 6.47262 0.00391293 6.193L0.204634 4.60999C0.224098 4.4536 0.315678 4.31499 0.451129 4.23486C0.451129 4.23486 2.64773 2.85791 3.03406 2.85791C3.69029 2.85791 3.99088 3.24664 4.10827 3.80419L4.51312 4.84819L6.16506 5.14706C6.44229 5.19723 6.6264 5.46273 6.57623 5.7402C6.53144 5.98694 6.3166 6.15963 6.07453 6.15963C6.04429 6.15963 6.01408 6.15696 5.98291 6.15162L4.17262 5.82401V7.49154L4.88389 8.73037C4.93747 8.82321 4.96519 8.92842 4.96519 9.03538V11.7211C4.96519 12.0594 4.69091 12.3334 4.35284 12.3334C4.01476 12.3334 3.74051 12.0594 3.74051 11.7211V9.19855L3.10814 8.09732H3.09448V9.40461C3.09448 9.60748 2.99415 9.797 2.82656 9.91102L0.987038 11.1614C0.881306 11.233 0.76145 11.2673 0.643099 11.2673C0.44726 11.2673 0.25486 11.1735 0.136018 10.9991C-0.0540495 10.7195 0.0185571 10.3386 0.298209 10.1485L1.86977 9.08045Z" fill="black"/>
<path d="M3.50294 2.43264C2.9154 2.43264 2.43945 1.88798 2.43945 1.21644C2.43945 0.544656 2.9154 0 3.50294 0C4.08948 0 4.56592 0.544656 4.56592 1.21644C4.56592 1.88801 4.08948 2.43264 3.50294 2.43264Z" fill="black"/>
</g>
</svg>
