<svg width="15" height="15" viewBox="0 0 15 15" fill="none" xmlns="http://www.w3.org/2000/svg">
<path d="M14.7914 12.4731L12.6766 14.571C12.3644 14.8912 11.9506 14.9996 11.5476 15.0001C9.76549 14.9467 8.08096 14.0713 6.69786 13.1724C4.42758 11.5208 2.3445 9.47287 1.03712 6.99802C0.535695 5.96023 -0.052656 4.6361 0.00355665 3.47773C0.00856916 3.04198 0.125994 2.61432 0.432883 2.33345L2.54771 0.219683C2.98686 -0.153855 3.41155 -0.0247047 3.69258 0.410395L5.39397 3.63667C5.57304 4.01888 5.47032 4.42841 5.20314 4.70152L4.42399 5.48027C4.37589 5.54616 4.34527 5.62116 4.34449 5.70278C4.64327 6.85931 5.54841 7.92527 6.34801 8.65886C7.1476 9.39246 8.00707 10.3863 9.12273 10.6216C9.26063 10.6601 9.42954 10.6736 9.5282 10.5819L10.4346 9.66009C10.747 9.42328 11.1982 9.30753 11.5317 9.50117H11.5476L14.6165 11.313C15.067 11.5954 15.114 12.1411 14.7914 12.4731Z" fill="#2196F3"/>
</svg>
