<svg width="12" height="14" viewBox="0 0 12 14" fill="none" xmlns="http://www.w3.org/2000/svg">
<g clip-path="url(#clip0)">
<path d="M9.968 1.33082H7.82453V0.432636C7.82453 0.193722 7.64933 0 7.43321 0H4.56697C4.35088 0 4.17566 0.193697 4.17566 0.432636V1.33082H2.03218C1.81609 1.33082 1.64087 1.52451 1.64087 1.76345V3.09425C1.64087 3.33316 1.81606 3.52688 2.03218 3.52688H9.96795C10.184 3.52688 10.3593 3.33319 10.3593 3.09425V1.76345C10.3593 1.52449 10.1841 1.33082 9.968 1.33082ZM7.04188 1.33082H4.95828V0.865247H7.04188V1.33082Z" fill="black" fill-opacity="0.75"/>
<path d="M2.18408 4.39215L2.50855 12.853C2.51741 13.0846 2.68984 13.2673 2.89949 13.2673H9.1003C9.30995 13.2673 9.48238 13.0846 9.49124 12.853L9.81568 4.39215H2.18408ZM4.817 11.508C4.817 11.7469 4.64181 11.9406 4.42569 11.9406C4.2096 11.9406 4.03438 11.7469 4.03438 11.508V6.15146C4.03438 5.91255 4.20957 5.71882 4.42569 5.71882C4.64178 5.71882 4.817 5.91252 4.817 6.15146V11.508ZM6.39114 11.508C6.39114 11.7469 6.21594 11.9406 5.99982 11.9406C5.78371 11.9406 5.60851 11.7469 5.60851 11.508V6.15146C5.60851 5.91255 5.78371 5.71882 5.99982 5.71882C6.21594 5.71882 6.39114 5.91252 6.39114 6.15146V11.508ZM7.96527 11.508C7.96527 11.7469 7.79007 11.9406 7.57396 11.9406C7.35784 11.9406 7.18264 11.7469 7.18264 11.508V6.15146C7.18264 5.91255 7.35784 5.71882 7.57396 5.71882C7.79007 5.71882 7.96527 5.91252 7.96527 6.15146V11.508Z" fill="black" fill-opacity="0.75"/>
</g>
<defs>
<clipPath id="clip0">
<rect width="12" height="13.2672" fill="white"/>
</clipPath>
</defs>
</svg>
