<svg width="19" height="17" viewBox="0 0 19 17" fill="none" xmlns="http://www.w3.org/2000/svg">
<path d="M16.9335 14.186L12.3685 9.87461C13.0769 9.00967 13.4601 7.95215 13.4601 6.83984C13.4601 5.5084 12.9099 4.25996 11.915 3.31865C10.92 2.37734 9.59465 1.85938 8.18665 1.85938C6.77864 1.85938 5.45325 2.379 4.45833 3.31865C3.46165 4.2583 2.91321 5.5084 2.91321 6.83984C2.91321 8.16963 3.4634 9.42139 4.45833 10.361C5.45325 11.3023 6.77688 11.8203 8.18665 11.8203C9.36438 11.8203 10.4823 11.4584 11.3982 10.791L15.9632 15.1008C15.9766 15.1134 15.9925 15.1235 16.01 15.1303C16.0275 15.1372 16.0462 15.1407 16.0652 15.1407C16.0841 15.1407 16.1028 15.1372 16.1203 15.1303C16.1378 15.1235 16.1537 15.1134 16.1671 15.1008L16.9335 14.3786C16.9469 14.366 16.9575 14.351 16.9648 14.3344C16.972 14.3179 16.9758 14.3002 16.9758 14.2823C16.9758 14.2644 16.972 14.2467 16.9648 14.2302C16.9575 14.2137 16.9469 14.1987 16.9335 14.186ZM10.971 9.46953C10.2257 10.1718 9.23782 10.5586 8.18665 10.5586C7.13547 10.5586 6.14758 10.1718 5.40227 9.46953C4.65872 8.76563 4.24915 7.83262 4.24915 6.83984C4.24915 5.84707 4.65872 4.9124 5.40227 4.21016C6.14758 3.50791 7.13547 3.12109 8.18665 3.12109C9.23782 3.12109 10.2275 3.50625 10.971 4.21016C11.7146 4.91406 12.1241 5.84707 12.1241 6.83984C12.1241 7.83262 11.7146 8.76729 10.971 9.46953Z" fill="white"/>
</svg>
