<svg width="500" height="573" viewBox="0 0 500 573" fill="none" xmlns="http://www.w3.org/2000/svg">
<g opacity="0.3" clip-path="url(#clip0)">
<path opacity="0.1" d="M269.291 572.678C308.738 572.678 340.715 567.549 340.715 561.221C340.715 554.894 308.738 549.765 269.291 549.765C229.845 549.765 197.867 554.894 197.867 561.221C197.867 567.549 229.845 572.678 269.291 572.678Z" fill="#5C76FF"/>
<path opacity="0.1" d="M10.1448 247.577H84.5375V348.841H15.591C15.4078 349.88 15.2319 350.927 15.0413 351.974H84.5375V433.641C84.4129 433.604 84.3029 433.56 84.1856 433.516C82.2212 432.74 80.2714 431.92 78.3216 431.042L77.0755 430.478C75.1208 429.556 73.1661 428.58 71.2115 427.55C70.5298 427.191 69.8481 426.818 69.1737 426.437C58.3222 420.367 48.4641 412.674 39.9415 403.627C39.6922 403.385 39.4577 403.129 39.2085 402.895C38.021 401.607 36.8555 400.303 35.7267 398.971L34.4806 397.507C33.1465 395.875 31.8564 394.198 30.603 392.5C30.4197 392.251 30.2438 392.002 30.0532 391.768C24.9555 384.709 20.7228 377.066 17.4455 369.001C17.3429 368.76 17.2549 368.496 17.1597 368.269C16.153 365.683 15.2612 363.072 14.4842 360.436C14.147 359.331 13.8245 358.24 13.5459 357.091C13.4433 356.754 13.3554 356.425 13.2747 356.095C9.11126 339.866 8.62015 323.007 8.62015 306.265C8.62015 304.311 8.62015 302.349 8.62015 300.409C8.62015 293.637 8.70078 286.822 8.81806 280.014C8.81806 278.25 8.89136 276.493 8.92801 274.721C9.03063 270.227 9.17723 265.732 9.36781 261.237C9.41179 259.985 9.47043 258.741 9.5364 257.496C9.5364 256.779 9.57306 256.062 9.64636 255.344C9.82228 252.738 9.96888 250.154 10.1448 247.577Z" fill="#5C76FF"/>
<path opacity="0.1" d="M84.5375 134.828H43.7311C50.3644 124.459 57.612 114.495 65.4354 104.99C71.4973 97.5522 77.8964 90.305 84.5375 83.3213V134.828Z" fill="url(#paint0_linear)"/>
<path opacity="0.1" d="M84.5375 137.961V244.444H10.3794C10.3794 244.137 10.4307 243.822 10.4527 243.514C10.5186 242.672 10.5846 241.831 10.6579 240.996C10.7385 240.015 10.8265 239.027 10.9218 238.068C11.0171 237.109 11.1197 235.938 11.2297 234.876C11.3396 233.815 11.4422 232.739 11.5668 231.677C11.6915 230.616 11.8014 229.554 11.9333 228.5C12.0653 227.446 12.1826 226.377 12.3218 225.323C12.4318 224.445 12.5491 223.573 12.6664 222.695C12.8349 221.458 13.0109 220.213 13.2014 218.984C13.2014 218.801 13.2528 218.61 13.2821 218.434C14.62 209.432 16.4429 200.507 18.743 191.7C21.1506 182.462 24.225 173.41 27.9422 164.615C31.8928 155.414 36.5184 146.518 41.7813 137.998L84.5375 137.961Z" fill="url(#paint1_linear)"/>
<path opacity="0.1" d="M102.298 247.57V348.841H261.192V247.57H102.298ZM102.298 351.967V438.934C103.207 439.124 104.109 439.307 105.003 439.461C106.22 439.695 107.429 439.907 108.668 440.09C108.903 440.127 109.144 440.163 109.401 440.185C109.885 440.266 110.383 440.332 110.867 440.398C112.091 440.566 113.308 440.705 114.532 440.815C115.111 440.873 115.697 440.925 116.284 440.969L117.699 441.078C118.468 441.137 119.231 441.181 119.986 441.203C120.455 441.203 120.924 441.247 121.408 441.261C121.774 441.261 122.141 441.261 122.522 441.261C122.903 441.261 123.445 441.261 123.907 441.261C124.538 441.261 125.168 441.261 125.791 441.261H126.634C127.264 441.261 127.895 441.261 128.518 441.203H128.562C128.994 441.203 129.434 441.203 129.874 441.144C129.996 441.152 130.118 441.152 130.24 441.144C130.607 441.144 130.973 441.144 131.325 441.093H131.582L134.037 440.903C134.844 440.83 135.657 440.734 136.478 440.647L138.149 440.449C144.949 439.497 151.672 438.069 158.27 436.174C173.092 432.045 187.591 426.269 202.405 422.038C221.558 416.584 242.72 413.905 261.228 420.574V351.967H102.298ZM261.192 134.828V0.00733306C243.796 -0.180893 226.447 1.85112 209.566 6.05402C169.331 16.1489 133.231 38.0443 102.298 66.0084V134.821H110.273V137.946H102.298V244.444H261.192V137.954H143.017V134.828H261.192ZM465.282 89.2874C455.328 88.936 445.433 85.7882 436.483 80.9275C419.367 71.6305 405.696 57.2751 390.42 45.1598C358.681 19.9262 319.319 4.69973 278.938 0.922388V134.828H505.766L506.331 134.235L465.282 89.2874ZM485.946 85.6272L507.855 109.638V79.3316C500.518 80.2394 494.089 82.3989 485.975 85.5979L485.946 85.6272ZM507.855 460.529V351.967H461.17C461.046 351.506 460.921 351.037 460.774 350.569C460.914 351.037 461.031 351.506 461.163 351.967H278.967V430.478C280.697 431.76 282.405 433.107 284.098 434.475C285.923 435.94 287.726 437.484 289.537 438.999L291.362 440.507C292.234 441.24 293.114 441.972 294.001 442.66C295.76 444.085 297.536 445.49 299.33 446.876C300.217 447.608 301.126 448.267 302.027 448.955C316.341 459.884 331.44 469.747 347.202 478.464C350.736 480.416 354.3 482.322 357.897 484.181C360.294 485.404 362.706 486.619 365.124 487.797C368.76 489.569 372.425 491.277 376.12 492.922C410.18 508.191 446.196 518.669 483.138 524.056C491.343 525.266 499.58 526.218 507.848 526.911V460.522H508.581L507.855 460.529ZM278.967 137.954V244.444H507.885V137.954H278.967ZM278.967 247.57V348.841H507.885V247.57H278.967ZM525.653 79.1999V113.006L553.617 82.3623C544.352 80.8689 535.03 79.8026 525.653 79.1633V79.1999ZM525.653 247.607V348.841H748.303V247.57L525.653 247.607ZM747.489 468.567L748.274 351.967H525.653V528.075C539.994 528.676 554.357 528.505 568.68 527.562H568.929C575.771 527.133 582.58 526.508 589.358 525.688H589.512C625.672 521.485 661.029 512.063 694.478 497.717L747.489 468.567ZM791.235 264.246C790.399 262.277 789.527 260.322 788.64 258.39C786.984 254.729 785.232 251.172 783.429 247.614H766.056V348.841H809.978C809.956 320.174 802.692 290.892 791.257 264.209L791.235 264.246ZM766.056 352.003V452.293C778.429 440.449 788.882 426.899 796.41 411.409C805.463 392.756 809.604 372.559 809.941 351.989L766.056 352.003ZM766.056 218.098V244.451H781.801C777.038 235.379 771.789 226.57 766.078 218.061L766.056 218.098ZM615.057 99.0675C613.899 98.6283 612.741 98.1818 611.575 97.7498C599.284 93.2165 586.723 89.4466 573.965 86.4617L531.172 133.364L530.351 134.235L530.901 134.835H683.205C661.993 120.253 639.125 108.235 615.079 99.0309L615.057 99.0675ZM687.669 137.99H528.775L525.653 140.845V244.444H553.023H553.067H748.332V194.263C730.668 172.928 710.281 153.997 687.691 137.954L687.669 137.99Z" fill="url(#paint2_linear)"/>
<path opacity="0.1" d="M84.5375 191.671V244.444H10.3794C10.3794 244.137 10.4307 243.822 10.4527 243.514C10.5186 242.673 10.5846 241.831 10.6579 240.996C10.7385 240.015 10.8265 239.027 10.9218 238.068C11.0171 237.109 11.1197 235.938 11.2297 234.876C11.3396 233.815 11.4422 232.739 11.5668 231.677C11.6915 230.616 11.8014 229.554 11.9333 228.5C12.0653 227.446 12.1826 226.377 12.3218 225.323C12.4318 224.445 12.5491 223.574 12.6664 222.695C12.8349 221.458 13.0109 220.214 13.2014 218.984C13.2014 218.801 13.2528 218.61 13.2821 218.435C14.62 209.432 16.4429 200.507 18.743 191.7L84.5375 191.671Z" fill="url(#paint3_linear)"/>
<path opacity="0.1" d="M10.1448 247.577H84.5375V348.841H15.591C15.4078 349.88 15.2319 350.927 15.0413 351.974H84.5375V433.641C84.4129 433.604 84.3029 433.56 84.1856 433.516C82.2212 432.74 80.2714 431.92 78.3216 431.042L77.0755 430.478C75.1208 429.556 73.1661 428.58 71.2115 427.55C70.5298 427.191 69.8481 426.818 69.1737 426.437C58.3222 420.367 48.4641 412.674 39.9415 403.627C39.6922 403.385 39.4577 403.129 39.2085 402.895C38.021 401.607 36.8555 400.303 35.7267 398.971L34.4806 397.507C33.1465 395.875 31.8564 394.198 30.603 392.5C30.4197 392.251 30.2438 392.002 30.0532 391.768C24.9555 384.709 20.7228 377.066 17.4455 369.001C17.3429 368.76 17.2549 368.496 17.1597 368.269C16.153 365.683 15.2612 363.072 14.4842 360.436C14.147 359.331 13.8245 358.24 13.5459 357.091C13.4433 356.754 13.3554 356.425 13.2747 356.095C9.11126 339.866 8.62015 323.007 8.62015 306.265C8.62015 304.311 8.62015 302.349 8.62015 300.409C8.62015 293.637 8.70078 286.822 8.81806 280.014C8.81806 278.25 8.89136 276.493 8.92801 274.721C9.03063 270.227 9.17723 265.732 9.36781 261.237C9.41179 259.985 9.47043 258.741 9.5364 257.496C9.5364 256.779 9.57306 256.062 9.64636 255.344C9.82228 252.738 9.96888 250.154 10.1448 247.577Z" fill="url(#paint4_linear)"/>
<path opacity="0.1" d="M158.234 153.202V244.444H102.298V153.202H110.273V122.31H143.009V153.202H158.234Z" fill="#5C76FF"/>
<path opacity="0.1" d="M158.234 247.57H102.306V348.833H158.234V247.57Z" fill="#5C76FF"/>
<path opacity="0.1" d="M102.298 351.974H158.234V436.159C151.636 438.053 144.912 439.479 138.113 440.427L136.442 440.632C135.621 440.727 134.807 440.808 134.001 440.888C133.194 440.969 132.359 441.027 131.545 441.078H131.288C130.937 441.078 130.555 441.122 130.211 441.13H129.837C129.397 441.13 128.958 441.174 128.518 441.188C127.895 441.225 127.272 441.232 126.634 441.24C126.363 441.24 126.106 441.24 125.835 441.24C125.205 441.24 124.581 441.24 123.951 441.24H122.566C122.192 441.24 121.833 441.24 121.444 441.24L120.03 441.188C119.297 441.188 118.505 441.108 117.743 441.057L116.335 440.954L114.583 440.793C113.352 440.683 112.128 440.544 110.918 440.376L109.452 440.171L108.719 440.068C107.495 439.878 106.286 439.673 105.054 439.439C104.153 439.285 103.258 439.095 102.349 438.912L102.298 351.974Z" fill="#5C76FF"/>
<path opacity="0.1" d="M507.885 142.427H461.764V244.437H507.885V142.427Z" fill="#5C76FF"/>
<path opacity="0.1" d="M507.892 247.57V348.841H278.967V305.16H400.902V330.928H461.764V247.57H507.892Z" fill="#5C76FF"/>
<path opacity="0.1" d="M508.618 460.551H507.885V526.984C499.626 526.286 491.392 525.337 483.182 524.136C446.221 518.732 410.19 508.232 376.12 492.936C366.283 488.515 356.646 483.688 347.21 478.457C331.448 469.736 316.346 459.873 302.027 448.948C298.431 446.195 294.881 443.38 291.377 440.5C288.951 438.502 286.539 436.452 284.098 434.461C282.405 433.092 280.697 431.745 278.967 430.457V351.974H461.155C461.031 351.506 460.906 351.037 460.774 350.576C460.914 351.037 461.046 351.506 461.17 351.974H507.885V460.507C508.134 460.514 508.376 460.536 508.618 460.551Z" fill="url(#paint5_linear)"/>
<path opacity="0.1" d="M507.892 170.786H483.182V202.769H507.892V170.786Z" fill="#5C76FF"/>
<path opacity="0.1" d="M507.892 237.08H483.182V244.444H507.892V237.08Z" fill="#5C76FF"/>
<path opacity="0.1" d="M507.892 247.57H483.182V269.055H507.892V247.57Z" fill="#5C76FF"/>
<path opacity="0.1" d="M507.892 303.374H483.182V335.357H507.892V303.374Z" fill="#5C76FF"/>
<path opacity="0.1" d="M507.892 369.667H483.182V401.65H507.892V369.667Z" fill="#5C76FF"/>
<path opacity="0.1" d="M507.885 460.507C508.134 460.507 508.376 460.507 508.618 460.551H507.885V467.981H483.182V435.961H507.885V460.507Z" fill="#5C76FF"/>
<path opacity="0.1" d="M507.884 502.241V526.947C499.626 526.249 491.392 525.3 483.182 524.1V502.241H507.884Z" fill="#5C76FF"/>
<path opacity="0.1" d="M384.864 346.491H278.967V348.841H384.864V346.491Z" fill="#5C76FF"/>
<path opacity="0.1" d="M384.864 351.967H278.967V360.971H384.864V351.967Z" fill="#5C76FF"/>
<path opacity="0.1" d="M384.864 390.487H278.967V404.967H384.864V390.487Z" fill="#5C76FF"/>
<path opacity="0.1" d="M384.857 434.483V448.963H302.027C298.431 446.22 294.878 443.404 291.37 440.515C288.943 438.516 286.539 436.467 284.091 434.483H384.857Z" fill="#5C76FF"/>
<path opacity="0.1" d="M384.857 478.471V492.936H376.112C366.285 488.51 356.651 483.681 347.21 478.449L384.857 478.471Z" fill="#5C76FF"/>
<path opacity="0.1" d="M138.164 160.384H117.317V181.203H138.164V160.384Z" fill="#5C76FF"/>
<path opacity="0.1" d="M138.164 208.742H117.317V229.562H138.164V208.742Z" fill="#5C76FF"/>
<path opacity="0.1" d="M138.164 257.101H117.317V277.92H138.164V257.101Z" fill="#5C76FF"/>
<path opacity="0.1" d="M138.164 305.453H117.317V326.272H138.164V305.453Z" fill="#5C76FF"/>
<path opacity="0.1" d="M138.164 353.812H117.317V374.631H138.164V353.812Z" fill="#5C76FF"/>
<path opacity="0.1" d="M138.164 402.17H117.317V422.99H138.164V402.17Z" fill="#5C76FF"/>
<path opacity="0.1" d="M13.1941 218.42V230.33H84.5375V218.42H13.1941ZM20.3043 229.584H14.4842V219.152H20.3483L20.3043 229.584ZM27.4071 229.584H21.5431V219.152H27.4071V229.584ZM34.4953 229.584H28.6312V219.152H34.4953V229.584ZM41.5981 229.584H35.7414V219.152H41.6054L41.5981 229.584ZM48.6936 229.584H42.8295V219.152H48.6936V229.584ZM55.7964 229.584H49.9323V219.152H55.7964V229.584ZM62.8992 229.584H57.0352V219.152H62.8992V229.584ZM69.9947 229.584H64.1307V219.152H69.9947V229.584ZM77.0902 229.584H71.2262V219.152H77.0902V229.584ZM84.1857 229.584H78.3216V219.152H84.1857V229.584Z" fill="#5C76FF"/>
<path opacity="0.1" d="M13.1941 253.075V264.985H84.5375V253.075H13.1941ZM20.3043 264.231H14.4842V253.829H20.3483L20.3043 264.231ZM27.4071 264.231H21.5431V253.829H27.4071V264.231ZM34.4953 264.231H28.6312V253.829H34.4953V264.231ZM41.5981 264.231H35.7414V253.829H41.6054L41.5981 264.231ZM48.6936 264.231H42.8295V253.829H48.6936V264.231ZM55.7964 264.231H49.9323V253.829H55.7964V264.231ZM62.8992 264.231H57.0352V253.829H62.8992V264.231ZM69.9947 264.231H64.1307V253.829H69.9947V264.231ZM77.0902 264.231H71.2262V253.829H77.0902V264.231ZM84.1857 264.231H78.3216V253.829H84.1857V264.231Z" fill="#5C76FF"/>
<path opacity="0.1" d="M13.1941 287.744V299.677H84.5375V287.744H13.1941ZM20.3043 298.901H14.4842V288.491H20.3483L20.3043 298.901ZM27.4071 298.901H21.5431V288.491H27.4071V298.901ZM34.4953 298.901H28.6312V288.491H34.4953V298.901ZM41.5981 298.901H35.7414V288.491H41.6054L41.5981 298.901ZM48.6936 298.901H42.8295V288.491H48.6936V298.901ZM55.7964 298.901H49.9323V288.491H55.7964V298.901ZM62.8992 298.901H57.0352V288.491H62.8992V298.901ZM69.9947 298.901H64.1307V288.491H69.9947V298.901ZM77.0902 298.901H71.2262V288.491H77.0902V298.901ZM84.1857 298.901H78.3216V288.491H84.1857V298.901Z" fill="#5C76FF"/>
<path opacity="0.1" d="M13.1941 322.414V334.31H84.5375V322.414H13.1941ZM20.3043 333.57H14.4842V323.153H20.3483L20.3043 333.57ZM27.4071 333.57H21.5431V323.153H27.4071V333.57ZM34.4953 333.57H28.6312V323.153H34.4953V333.57ZM41.5981 333.57H35.7414V323.153H41.6054L41.5981 333.57ZM48.6936 333.57H42.8295V323.153H48.6936V333.57ZM55.7964 333.57H49.9323V323.153H55.7964V333.57ZM62.8992 333.57H57.0352V323.153H62.8992V333.57ZM69.9947 333.57H64.1307V323.153H69.9947V333.57ZM77.0902 333.57H71.2262V323.153H77.0902V333.57ZM84.1857 333.57H78.3216V323.153H84.1857V333.57Z" fill="#5C76FF"/>
<path opacity="0.1" d="M13.5019 357.076C13.7878 358.196 14.1103 359.316 14.4475 360.422V357.823H20.3115V368.233H17.1742C17.2695 368.474 17.3648 368.738 17.4601 368.965H84.5374V357.076H13.5019ZM27.429 368.233H21.5649V357.823H27.429V368.233ZM34.5171 368.233H28.6531V357.823H34.5171V368.233ZM41.62 368.233H35.7413V357.823H41.6053L41.62 368.233ZM48.7155 368.233H42.8514V357.823H48.7155V368.233ZM55.8183 368.233H49.9542V357.823H55.8183V368.233ZM62.9211 368.233H57.057V357.823H62.9211V368.233ZM70.0166 368.233H64.1525V357.823H70.0166V368.233ZM77.1121 368.233H71.248V357.823H77.1121V368.233ZM84.2076 368.233H78.3435V357.823H84.2076V368.233Z" fill="#5C76FF"/>
<path opacity="0.1" d="M30.0678 391.746C30.2511 391.98 30.427 392.244 30.6176 392.478H34.4952V397.478C34.913 397.976 35.3235 398.474 35.7486 398.942V392.449H41.6127V402.895H39.2377C39.4723 403.137 39.6995 403.393 39.9707 403.627H84.5594V391.746H30.0678ZM48.6935 402.895H42.8295V392.493H48.6935V402.895ZM55.7963 402.895H49.9323V392.493H55.7963V402.895ZM62.8991 402.895H57.0351V392.493H62.8991V402.895ZM69.9946 402.895H64.1306V392.493H69.9946V402.895ZM77.0901 402.895H71.2261V392.493H77.0901V402.895ZM84.1856 402.895H78.3216V392.493H84.1856V402.895Z" fill="#5C76FF"/>
<path opacity="0.1" d="M69.2031 426.408C69.8701 426.789 70.5518 427.14 71.2408 427.521V427.155H77.1049V430.449L78.351 431.027V427.155H84.215V433.487C84.3275 433.543 84.4454 433.587 84.5669 433.619V426.408H69.2031Z" fill="#5C76FF"/>
<path opacity="0.1" d="M553.038 244.444H553.082H553.038ZM507.885 460.5H508.618H507.885ZM460.774 350.569C460.914 351.037 461.031 351.506 461.163 351.967C461.046 351.506 460.921 351.037 460.774 350.569ZM553.038 244.422H553.082H553.038ZM110.303 134.806V137.932H143.046V134.806H110.303ZM507.885 460.5H508.618H507.885ZM460.774 350.569C460.914 351.037 461.031 351.506 461.163 351.967C461.046 351.506 460.921 351.037 460.774 350.569ZM553.038 244.422H553.082H553.038ZM507.885 460.478H508.618H507.885ZM460.774 350.569C460.914 351.037 461.031 351.506 461.163 351.967C461.046 351.506 460.921 351.037 460.774 350.569Z" fill="#5C76FF"/>
<path d="M204.044 277.935C204.044 277.935 206.932 277.533 206.932 273.331C206.932 269.129 208.999 261.281 208.999 261.281C208.999 261.245 210.788 247.614 213.258 245.447C215.728 243.28 218.902 230.557 218.902 230.557C218.902 230.557 219.445 223.654 220.551 222.168C221.658 220.682 223.154 217.044 225.36 211.854C227.566 206.663 236.765 203.069 236.765 203.069C236.765 203.069 253.397 193.435 258.111 190.295C258.539 190.037 258.939 189.735 259.305 189.394C260.126 188.318 263.703 188.296 263.703 188.296C264.077 185.939 264.436 183.231 264.554 180.778C264.554 180.515 264.554 180.251 264.59 179.988C259.335 176.885 255.376 171.993 253.441 166.211C253.353 165.932 253.28 165.64 253.199 165.361C252.885 165.258 252.595 165.09 252.349 164.868C252.102 164.646 251.905 164.375 251.77 164.073C251.345 163.129 251.338 162.023 250.81 161.145C250.194 160.105 249.021 159.549 248.098 158.766C245.767 156.789 245.166 153.458 245.276 150.428C245.349 147.975 245.745 145.501 245.591 143.063L245.547 142.448C245.503 142.082 245.452 141.716 245.386 141.365C245.026 139.55 244.242 137.837 243.802 136.036C243.363 134.235 243.319 132.207 244.345 130.655C245.847 128.379 248.977 127.925 251.726 127.69C254.841 127.427 257.627 127.771 259.621 125.187C260.554 123.836 261.603 122.57 262.758 121.402C263.168 121.022 267.156 118.591 267.156 118.43C271.048 116.63 275.459 116.292 279.58 117.478C281.647 118.079 283.597 119.06 285.694 119.55C290.216 120.619 295.421 119.462 299.261 122.046C301.402 123.511 302.685 125.838 303.887 128.108C304.864 129.977 305.856 131.844 306.863 133.708C308.483 136.775 310.132 139.894 310.814 143.29C310.957 144.029 311.045 144.778 311.078 145.53V145.567C311.078 145.838 311.078 146.109 311.078 146.38V146.724C311.078 146.98 311.078 147.229 311.034 147.456C310.99 147.683 310.997 147.756 310.975 147.91C310.953 148.063 310.916 148.407 310.872 148.642C310.828 148.876 310.74 149.286 310.652 149.608C310.616 149.747 310.564 149.879 310.52 150.01C310.447 150.259 310.359 150.501 310.264 150.743C310.213 150.867 310.161 150.999 310.103 151.123C309.993 151.379 309.861 151.628 309.729 151.855C309.67 151.958 309.626 152.053 309.568 152.148C309.363 152.489 309.138 152.816 308.893 153.129C307.325 155.084 305.016 156.328 303.308 158.158C303.308 158.231 303.308 158.305 303.308 158.37C303.308 158.575 303.308 158.773 303.308 158.978C303.217 163.06 302.129 167.057 300.139 170.623C298.149 174.189 295.316 177.215 291.887 179.439C291.887 179.717 291.851 180.002 291.836 180.281C291.693 182.453 291.72 184.634 291.917 186.803C292.215 186.452 292.589 186.172 293.01 185.985C293.431 185.797 293.889 185.707 294.35 185.72C294.665 185.704 294.981 185.731 295.289 185.8L295.355 185.749V185.815C296.967 186.21 298.954 187.886 300.852 192.652C300.852 192.652 306.628 199.153 311.026 198.882C315.424 198.611 326.559 205.646 326.559 205.646C326.559 205.646 337.422 212.688 339.753 219.862C341.056 223.93 342.618 227.911 344.429 231.78L357.858 259.414L360.335 281.339C360.335 281.339 358.965 291.09 359.236 292.576C359.507 294.062 353.599 307.466 353.599 307.466C353.599 307.466 334.079 341.718 326.104 343.475L325.532 343.072C325.191 343.25 324.829 343.386 324.455 343.475L322.813 342.318C322.714 343.608 322.756 344.904 322.938 346.184C324.037 349.566 322.527 371.637 320.607 375.963C318.686 380.29 319.368 437.016 319.368 437.016L319.639 442.023C319.639 442.023 319.639 442.184 319.573 442.462L319.639 443.648L319.441 443.75C319.236 445.339 319.303 446.95 319.639 448.516C320.328 450.712 320.607 456.92 320.607 456.92C320.607 456.92 326.097 491.97 323.495 499.012C320.892 506.055 318.679 513.77 318.679 513.77C318.679 513.77 315.93 522.555 318.547 524.056C321.164 525.556 328.604 528.075 327.072 531.735C325.679 535.117 320.394 544.18 319.61 545.505L319.676 546.2L320.753 557.861C320.579 559.401 320.161 560.903 319.514 562.312C318.334 564.852 316.04 567.488 311.679 567.202C310.946 567.151 310.095 567.063 309.274 566.953C301.292 565.885 291.462 562.327 291.462 562.327C291.973 562.003 292.44 561.617 292.855 561.178C293.247 560.798 293.558 560.343 293.769 559.839C293.979 559.336 294.085 558.795 294.079 558.249C293.962 556.126 297.942 546.01 298.932 543.521C299.086 543.162 299.166 542.957 299.166 542.957C299.166 542.957 290.092 533.484 291.602 525.088C291.602 525.088 301.644 519.231 298.338 516.018C295.032 512.804 289.124 503.573 289.124 503.573C289.124 503.573 288.853 469.057 289.124 463.904C289.407 460.327 289.237 456.728 288.618 453.194C288.508 452.659 288.376 452.14 288.237 451.627C283.665 452.309 279.05 452.659 274.427 452.674C272.741 452.674 271.026 452.674 269.296 452.572C269.296 453.06 269.274 453.587 269.23 454.153C268.849 462.703 268.138 477.695 267.559 483.266C266.738 491.253 262.201 512.775 262.201 512.775C262.201 512.775 270.858 518.324 260.691 531.998C260.691 531.998 260.691 536.954 261.365 537.672C262.085 540.017 262.665 542.403 263.102 544.816C263.527 547.393 263.703 549.999 263.014 551.354C261.365 554.589 251.47 554.326 251.47 554.326L251.228 554.282C249.359 554.089 247.472 554.268 245.673 554.81C243.875 555.352 242.203 556.245 240.753 557.437C236.993 560.453 222.721 559.128 214.995 558.169C211.968 557.788 209.945 557.437 209.945 557.437C209.847 557.095 209.812 556.737 209.842 556.383C209.923 554.487 211.411 550.329 221.497 546.617C221.497 546.617 230.982 540.248 230.85 534.7H231.048H232.148C231.349 534.656 230.835 534.7 230.835 534.7C230.835 534.7 234.552 521.157 233.034 520.059C231.517 518.961 236.062 503.954 236.062 503.954C236.062 503.954 238.664 478.771 238.803 477.007C238.797 475.493 238.568 473.989 238.122 472.542L238.803 458.735C238.803 458.735 238.935 454.145 238.803 452.652C238.825 451.356 238.931 450.062 239.118 448.78C239.184 448.267 239.25 447.733 239.324 447.206C235.769 446.305 233.46 445.471 233.46 445.471L233.87 397.412C230.85 391.556 230.293 378.708 230.308 369.594C230.308 363.738 230.572 359.404 230.572 359.404L226.445 352.677C226.445 352.677 225.492 344.624 227.002 342.86C227.669 342.062 227.368 341.235 226.819 340.554C226.533 340.328 226.232 340.123 225.917 339.939C225.917 339.939 225.961 339.873 226.012 339.778C225.724 339.538 225.418 339.32 225.096 339.127C225.096 339.127 226.562 336.857 225.25 335.898C224.019 336.733 222.919 337.362 222.083 337.875C222.142 338.409 222.201 338.717 222.201 338.717L221.849 337.985C221.043 338.439 220.551 338.717 220.551 338.717C220.551 338.717 214.086 325.855 214.226 323.959C214.365 322.063 209.828 314.076 209.828 314.076C209.828 314.076 209.278 309.882 206.8 308.125C204.323 306.368 204.88 293.637 204.88 293.637C204.88 293.637 204.191 287.005 202.541 284.297C200.892 281.588 204.044 277.935 204.044 277.935ZM327.746 272.291L327.621 275.358C328.354 274.18 328.882 273.331 328.882 273.331L327.746 272.291Z" fill="url(#paint6_linear)"/>
<path d="M220.2 333.16L221.783 339.895C221.783 339.895 234.464 333.431 236.751 325.218C239.038 317.004 232.925 313.886 232.925 313.886L221.109 318.886L220.2 333.16Z" fill="white"/>
<path opacity="0.1" d="M220.2 333.16L221.783 339.895C221.783 339.895 234.464 333.431 236.751 325.218C239.038 317.004 232.925 313.886 232.925 313.886L221.109 318.886L220.2 333.16Z" fill="black"/>
<path d="M291.367 562.371C291.367 562.371 303.095 566.675 311.158 567.217C315.439 567.502 317.69 564.882 318.848 562.356C319.48 560.952 319.888 559.458 320.057 557.927L319.009 546.324L318.452 540.146L301.322 535.702L298.895 543.111L298.668 543.674C297.693 546.149 293.786 556.214 293.904 558.315C293.908 558.853 293.804 559.387 293.598 559.883C293.391 560.38 293.086 560.83 292.701 561.207C292.308 561.65 291.86 562.041 291.367 562.371Z" fill="white"/>
<path d="M211.257 556.47C211.228 556.823 211.262 557.177 211.36 557.517C211.36 557.517 236.443 561.697 241.574 557.517C243.021 556.296 244.707 555.391 246.525 554.859C248.342 554.327 250.251 554.18 252.129 554.428C252.129 554.428 261.834 554.692 263.454 551.5C264.128 550.16 263.953 547.562 263.535 544.999C263.109 542.599 262.541 540.225 261.834 537.891L261.446 537.584L259.137 535.732L232.104 534.934H231.898C232.03 540.453 222.721 546.786 222.721 546.786C212.833 550.446 211.374 554.582 211.257 556.47Z" fill="white"/>
<path opacity="0.1" d="M211.257 556.47C211.231 556.823 211.268 557.178 211.367 557.517C211.367 557.517 236.443 561.697 241.574 557.517C243.02 556.297 244.705 555.392 246.521 554.86C248.338 554.328 250.245 554.181 252.122 554.428C252.122 554.428 261.834 554.692 263.447 551.5C264.121 550.153 263.953 547.561 263.535 544.999C259.796 545.373 253.896 546.302 251.579 548.52C248.076 551.895 242.138 555.263 238.495 555.526C235.644 555.709 218.587 556.251 211.257 556.47Z" fill="black"/>
<path opacity="0.1" d="M291.367 562.371C291.367 562.371 303.095 566.675 311.158 567.217C315.439 567.502 317.69 564.882 318.84 562.349C315.857 563.352 311.716 564.406 309.538 563.44C306.958 562.298 297.81 561.558 292.679 561.243C292.289 561.67 291.848 562.049 291.367 562.371Z" fill="black"/>
<path d="M273.966 215.492C283.641 211.737 296.088 199.328 292.98 193.531C292.29 192.068 291.88 190.489 291.771 188.875C291.571 186.684 291.541 184.482 291.683 182.286C291.9 178.691 292.334 175.113 292.98 171.569C292.98 171.569 262.773 172.25 264.532 176.694C265.045 177.997 265.126 180.259 264.986 182.792C264.847 185.324 264.481 188.187 264.1 190.61C263.572 193.933 263.044 196.466 263.044 196.466C263.044 196.466 264.891 199.05 265.976 199.189C267.061 199.328 260.083 220.843 273.966 215.492Z" fill="#CF6F80"/>
<path opacity="0.1" d="M298.69 543.674L298.917 543.923C307.948 533.016 318.869 546.61 318.869 546.61L319.031 546.324L318.474 540.146L301.343 535.702L298.917 543.111L298.69 543.674Z" fill="black"/>
<path opacity="0.1" d="M231.891 535.702C231.891 535.702 238.488 535.563 242.007 538.667C245.525 541.771 262.531 539.341 261.798 538.667C261.581 538.334 261.45 537.951 261.417 537.555L259.108 535.702L232.074 534.905C231.972 535.395 231.891 535.702 231.891 535.702Z" fill="black"/>
<path d="M287.453 450.046C287.944 451.259 288.317 452.517 288.567 453.801C289.178 457.319 289.348 460.9 289.073 464.46C288.802 469.584 289.073 503.924 289.073 503.924C289.073 503.924 294.871 513.082 298.104 516.311C301.336 519.539 291.507 525.337 291.507 525.337C290.041 533.682 298.925 543.111 298.925 543.111C307.955 532.203 318.877 545.805 318.877 545.805C318.877 545.805 324.814 535.556 326.295 531.896C327.776 528.236 320.497 525.703 317.939 524.217C315.38 522.731 318.063 513.968 318.063 513.968C318.063 513.968 320.226 506.289 322.791 499.283C325.357 492.278 319.962 457.403 319.962 457.403C319.962 457.403 319.683 451.21 319.016 449.05C318.68 447.492 318.613 445.888 318.818 444.307C318.862 443.772 318.914 443.326 318.95 443.026C318.987 442.726 319.016 442.586 319.016 442.586L318.914 442.411L315.249 435.588C315.249 435.588 285.694 445.749 287.453 450.046Z" fill="url(#paint7_linear)"/>
<path d="M231.891 534.897C231.891 534.897 238.488 534.758 242.007 537.825C245.525 540.893 262.531 538.499 261.798 537.825C261.065 537.152 261.123 532.167 261.123 532.167C271.1 518.565 262.59 513.046 262.59 513.046C262.59 513.046 267.046 491.633 267.852 483.691C268.417 478.142 269.113 463.23 269.487 454.716C269.648 451.056 269.744 448.538 269.744 448.538L261.593 446.898L260.544 446.686L240.885 442.748C240.885 442.748 240.343 446.408 239.976 449.402C239.794 450.68 239.691 451.969 239.668 453.26C239.8 454.724 239.668 459.306 239.668 459.306L239.001 473.047C239.437 474.488 239.662 475.985 239.668 477.49C239.536 479.24 236.978 504.29 236.978 504.29C236.978 504.29 232.529 519.239 234.046 520.315C235.564 521.391 231.891 534.897 231.891 534.897Z" fill="url(#paint8_linear)"/>
<path opacity="0.1" d="M264.532 176.694C265.045 177.997 265.125 180.259 264.986 182.792C269.032 185.225 273.684 186.469 278.406 186.381C283.128 186.293 287.73 184.876 291.682 182.294C291.9 178.696 292.333 175.115 292.979 171.569C292.979 171.569 262.772 172.235 264.532 176.694Z" fill="black"/>
<path d="M252.855 160.515C252.85 163.153 253.265 165.775 254.087 168.282C255.923 173.9 259.689 178.688 264.719 181.801C269.748 184.914 275.718 186.15 281.572 185.293C287.426 184.435 292.789 181.538 296.711 177.114C300.634 172.69 302.864 167.023 303.008 161.116C303.008 160.911 303.008 160.72 303.008 160.515C303.064 157.19 302.458 153.887 301.223 150.798C299.988 147.71 298.15 144.897 295.815 142.526C293.481 140.154 290.697 138.27 287.626 136.985C284.555 135.699 281.258 135.037 277.928 135.037C274.598 135.037 271.301 135.699 268.23 136.985C265.159 138.27 262.375 140.154 260.04 142.526C257.706 144.897 255.867 147.71 254.633 150.798C253.398 153.887 252.791 157.19 252.848 160.515H252.855Z" fill="#CF6F80"/>
<path opacity="0.1" d="M273.966 215.492C283.641 211.736 296.088 199.328 292.98 193.531C292.29 192.067 291.88 190.488 291.771 188.875L278.525 199.746L270.33 206.458L264.1 190.617C263.572 193.94 263.044 196.473 263.044 196.473C263.044 196.473 264.891 199.057 265.976 199.197C267.061 199.336 260.083 220.843 273.966 215.492Z" fill="black"/>
<path d="M239.712 263.536L250.773 449.109L265.199 450.053L302.553 342.45L296.425 214.701L295.135 187.711L278.525 201.334L270.322 208.047L263.909 191.744L251.983 202.125L239.712 263.536Z" fill="url(#paint9_linear)"/>
<path opacity="0.1" d="M287.453 450.046C287.944 451.259 288.317 452.517 288.567 453.801C299.064 452.183 309.258 449.002 318.811 444.365L319.009 444.263L318.943 443.084L318.906 442.469L315.241 435.647C315.241 435.647 285.694 445.749 287.453 450.046Z" fill="black"/>
<path opacity="0.1" d="M261.424 453.831C264.107 454.286 266.814 454.594 269.531 454.753C269.692 451.093 269.788 448.575 269.788 448.575L261.637 446.935L261.424 453.831Z" fill="black"/>
<path opacity="0.1" d="M240.02 449.439C245.232 450.793 253.28 452.315 260.486 451.364L260.588 446.723L240.929 442.784C240.929 442.784 240.387 446.408 240.02 449.439Z" fill="black"/>
<path opacity="0.1" d="M260.618 452.213C290.671 457.337 318.195 442.645 318.195 442.645L317.931 437.667C317.931 437.667 317.25 381.234 319.141 376.908C321.032 372.581 322.505 350.642 321.435 347.274C320.365 343.907 325.342 293.411 325.342 293.411L326.148 272.913L355.659 260.974L342.465 233.508C340.683 229.657 339.15 225.695 337.876 221.648C335.582 214.518 324.932 207.513 324.932 207.513C324.932 207.513 314.01 200.514 309.692 200.778C305.375 201.041 299.716 194.585 299.716 194.585C295.538 183.948 291.756 188.765 291.756 188.765C291.756 189.27 291.756 188.765 291.961 190.339C293.427 202.015 268.256 238.91 267.896 239.562L265.5 297.876L263.073 371.673L260.618 452.213Z" fill="black"/>
<path d="M261.424 452.213C291.477 457.337 319.009 442.645 319.009 442.645L318.738 437.667C318.738 437.667 318.056 381.234 319.954 376.908C321.853 372.581 323.319 350.642 322.241 347.274C321.164 343.907 326.148 293.411 326.148 293.411L326.962 272.913L356.487 260.93L343.293 233.464C341.515 229.611 339.982 225.65 338.705 221.604C336.418 214.474 325.76 207.469 325.76 207.469C325.76 207.469 314.838 200.47 310.528 200.734C306.218 200.997 300.552 194.541 300.552 194.541C296.366 183.904 291.756 188.721 291.756 188.721C291.756 189.226 292.195 189.453 291.961 190.295C288.736 201.62 269.062 238.866 268.703 239.518L266.276 297.832L263.85 371.63L261.424 452.213Z" fill="white"/>
<path opacity="0.1" d="M269.523 241.179C272.756 239.832 289.879 220.309 289.879 220.309V215.865C290.502 214.401 294.204 215.294 297.209 216.319L295.919 189.329L294.453 190.544C291.242 201.861 269.897 240.528 269.523 241.179Z" fill="black"/>
<path d="M268.71 239.561C271.95 238.214 289.073 218.691 289.073 218.691V214.247C289.696 212.783 293.398 213.676 296.403 214.701L295.105 187.711L293.639 188.926C290.422 200.243 269.069 238.917 268.71 239.561Z" fill="white"/>
<path opacity="0.1" d="M318.195 336.931C317.792 336.931 297.297 334.778 297.297 334.778C297.297 334.778 284.887 359.148 285.701 365.078C286.514 371.007 287.988 376.256 292.98 375.326C297.971 374.397 319.844 376.058 319.844 376.058L318.195 336.931Z" fill="black"/>
<path d="M319.009 335.313C318.606 335.313 298.111 333.161 298.111 333.161C298.111 333.161 285.709 357.538 286.515 363.46C287.321 369.382 288.809 374.638 293.794 373.709C298.778 372.779 320.658 374.441 320.658 374.441L319.009 335.313Z" fill="white"/>
<path d="M303.564 323.871C303.564 323.871 284.755 333.966 284.352 337.048C283.949 340.13 293.925 335.701 296.08 335.166C297.499 334.825 298.943 334.6 300.398 334.493L314.772 334.881L303.564 323.871Z" fill="#CF6F80"/>
<path opacity="0.1" d="M274.772 242.438C273.679 242.438 272.793 241.553 272.793 240.462C272.793 239.37 273.679 238.485 274.772 238.485C275.865 238.485 276.751 239.37 276.751 240.462C276.751 241.553 275.865 242.438 274.772 242.438Z" fill="black"/>
<path d="M274.772 241.633C273.679 241.633 272.793 240.748 272.793 239.657C272.793 238.565 273.679 237.68 274.772 237.68C275.865 237.68 276.751 238.565 276.751 239.657C276.751 240.748 275.865 241.633 274.772 241.633Z" fill="#3F3D56"/>
<path opacity="0.1" d="M271.129 328C270.036 328 269.15 327.115 269.15 326.023C269.15 324.932 270.036 324.047 271.129 324.047C272.222 324.047 273.108 324.932 273.108 326.023C273.108 327.115 272.222 328 271.129 328Z" fill="black"/>
<path d="M271.129 327.187C270.036 327.187 269.15 326.302 269.15 325.211C269.15 324.119 270.036 323.234 271.129 323.234C272.222 323.234 273.108 324.119 273.108 325.211C273.108 326.302 272.222 327.187 271.129 327.187Z" fill="#3F3D56"/>
<path opacity="0.1" d="M272.8 285.219C271.707 285.219 270.821 284.334 270.821 283.243C270.821 282.151 271.707 281.266 272.8 281.266C273.893 281.266 274.779 282.151 274.779 283.243C274.779 284.334 273.893 285.219 272.8 285.219Z" fill="black"/>
<path d="M272.8 284.414C271.707 284.414 270.821 283.529 270.821 282.437C270.821 281.346 271.707 280.461 272.8 280.461C273.893 280.461 274.779 281.346 274.779 282.437C274.779 283.529 273.893 284.414 272.8 284.414Z" fill="#3F3D56"/>
<path d="M227.178 334.083C227.178 334.083 225.829 336.103 227.178 337.048C228.526 337.992 227.046 340.276 227.046 340.276C227.046 340.276 230.41 342.245 228.93 344.017C227.449 345.788 228.387 353.79 228.387 353.79L232.433 360.48C232.433 360.48 232.191 364.792 232.177 370.619C232.177 379.711 232.712 392.493 235.673 398.32L235.263 446.13C235.263 446.13 249.432 451.298 261.292 449.724L263.051 373.006C263.051 373.006 260.485 329.5 259.54 321.155C258.986 316.823 258.761 312.454 258.865 308.088C258.865 308.088 259.269 295.028 260.625 288.967C260.625 288.967 262.091 262.709 262.237 255.439C262.303 251.962 262.12 241.816 261.915 232.168C261.688 221.619 261.431 211.671 261.431 211.671L264.106 190.529C264.106 190.529 261.431 190.258 260.625 191.334C260.264 191.671 259.871 191.973 259.452 192.235C254.834 195.353 238.517 204.943 238.517 204.943C238.517 204.943 229.487 208.53 227.324 213.669C225.162 218.808 223.659 222.454 222.611 223.918C221.563 225.382 220.991 232.263 220.991 232.263C220.991 232.263 217.883 244.927 215.457 247.072C213.031 249.217 211.257 262.862 211.257 262.862L232.697 279.699C232.697 279.699 234.581 307.707 234.984 308.791C235.387 309.874 227.178 334.083 227.178 334.083Z" fill="white"/>
<path d="M226.364 334.083C226.364 334.083 225.023 336.103 226.364 337.048C227.706 337.992 226.24 340.276 226.24 340.276C226.24 340.276 229.582 342.267 228.116 344.039C226.65 345.81 227.574 353.812 227.574 353.812L231.62 360.502C231.62 360.502 231.378 364.814 231.356 370.641C231.356 379.733 231.891 392.515 234.853 398.342L234.45 446.152C234.45 446.152 248.64 451.32 260.486 449.746L262.238 373.028C262.238 373.028 259.672 329.522 258.727 321.177C258.173 316.845 257.95 312.476 258.06 308.11C258.06 308.11 258.463 295.05 259.811 288.989C259.811 288.989 261.277 262.731 261.431 255.461C261.497 251.984 261.307 241.838 261.109 232.19C260.882 221.641 260.625 211.693 260.625 211.693L264.158 190.266C264.158 190.266 260.625 190.266 259.811 191.356C259.454 191.697 259.061 191.999 258.639 192.257C254.021 195.375 237.697 204.965 237.697 204.965C237.697 204.965 228.673 208.552 226.511 213.691C224.349 218.83 222.846 222.476 221.791 223.94C220.735 225.404 220.178 232.285 220.178 232.285C220.178 232.285 217.07 244.949 214.644 247.094C212.217 249.239 210.466 262.855 210.466 262.855L231.906 279.692C231.906 279.692 233.79 307.7 234.2 308.784C234.611 309.867 226.364 334.083 226.364 334.083Z" fill="white"/>
<path opacity="0.1" d="M252.041 217.908L250.106 223.544L260.295 233.793C260.068 223.252 259.811 213.296 259.811 213.296L263.344 191.869C263.344 191.869 259.811 191.869 258.998 192.96C258.641 193.3 258.247 193.599 257.825 193.853L249.161 218.815L252.041 217.908Z" fill="black"/>
<path d="M252.855 216.29L250.913 221.927L261.102 232.175C260.874 221.626 260.618 211.678 260.618 211.678L264.158 190.251C264.158 190.251 260.618 190.251 259.811 191.342C259.452 191.681 259.059 191.982 258.639 192.242L249.967 217.198L252.855 216.29Z" fill="white"/>
<path opacity="0.1" d="M252.855 160.515C252.85 163.153 253.265 165.775 254.087 168.282C254.225 168.304 254.367 168.298 254.503 168.264C254.639 168.23 254.766 168.169 254.878 168.085C255.069 161.496 258.316 155.311 262.311 150.047C263.433 148.458 264.792 147.051 266.343 145.875C267.91 144.699 269.859 144.148 271.811 144.33C274.01 144.63 275.952 146.123 278.173 146.314C281.105 146.555 283.73 144.528 286.64 144.425C287.823 144.436 288.99 144.699 290.063 145.197C291.136 145.694 292.09 146.414 292.863 147.309C294.392 149.115 295.527 151.22 296.198 153.488C297.35 156.927 297.978 160.52 298.06 164.146C298.096 166.196 298.294 168.766 300.2 169.512C300.057 168.005 300.228 166.484 300.704 165.046C301.18 163.608 301.949 162.285 302.964 161.16L303.008 161.116C303.008 160.911 303.008 160.72 303.008 160.515C303.064 157.19 302.458 153.887 301.223 150.798C299.988 147.71 298.15 144.897 295.815 142.526C293.481 140.154 290.697 138.27 287.626 136.985C284.555 135.699 281.258 135.037 277.928 135.037C274.598 135.037 271.301 135.699 268.23 136.985C265.159 138.27 262.375 140.154 260.04 142.526C257.706 144.897 255.867 147.71 254.633 150.798C253.398 153.887 252.791 157.19 252.848 160.515H252.855Z" fill="black"/>
<path d="M267.545 120.743C271.354 118.954 275.686 118.616 279.727 119.792C281.758 120.392 283.671 121.366 285.731 121.856C290.129 122.918 295.26 121.768 299.035 124.338C301.131 125.802 302.392 128.115 303.565 130.363L306.497 135.941C308.095 138.993 309.707 142.097 310.374 145.457C311.041 148.817 310.638 152.58 308.505 155.281C306.951 157.25 304.657 158.488 302.971 160.34C301.961 161.466 301.195 162.789 300.72 164.225C300.246 165.661 300.074 167.179 300.215 168.685C298.302 167.953 298.118 165.376 298.074 163.326C297.993 159.7 297.365 156.107 296.213 152.668C295.544 150.399 294.408 148.295 292.877 146.489C292.104 145.595 291.15 144.875 290.077 144.378C289.004 143.881 287.837 143.617 286.654 143.605C283.722 143.708 281.091 145.728 278.188 145.487C275.989 145.304 274.039 143.803 271.825 143.51C269.874 143.326 267.923 143.877 266.357 145.055C264.808 146.229 263.45 147.637 262.333 149.227C258.331 154.491 255.084 160.662 254.893 167.265C254.065 167.872 252.87 167.082 252.459 166.145C252.049 165.208 252.034 164.11 251.514 163.217C250.913 162.184 249.762 161.635 248.86 160.859C246.573 158.89 246.002 155.574 246.09 152.565C246.178 149.557 246.764 146.504 246.192 143.547C245.848 141.731 245.071 140.033 244.646 138.239C244.22 136.446 244.169 134.433 245.173 132.888C246.639 130.619 249.725 130.172 252.415 129.96C255.472 129.696 258.206 130.033 260.156 127.464C261.071 126.123 262.101 124.864 263.235 123.701C263.623 123.32 267.545 120.905 267.545 120.743Z" fill="#512E4E"/>
<path opacity="0.1" d="M347.215 275.117L354.875 260.974L357.301 282.796C357.301 282.796 355.952 292.488 356.223 293.974C356.494 295.46 350.696 308.783 350.696 308.783C350.696 308.783 331.543 342.853 323.722 344.61L297.297 325.752L304.305 316.865C304.305 316.865 306.731 315.921 307.339 316.865C307.339 316.865 320.35 294.509 321.699 292.891C323.047 291.273 322.784 288.045 322.784 288.045C322.784 288.045 324.807 285.892 324.132 283.872C323.458 281.852 328.039 274.846 328.039 274.846L323.861 270.944L347.215 275.117Z" fill="black"/>
<path d="M354.472 259.363L356.495 260.974L358.921 282.796C358.921 282.796 357.572 292.488 357.843 293.974C358.115 295.46 352.309 308.784 352.309 308.784C352.309 308.784 333.163 342.853 325.342 344.61L298.91 325.752L305.925 316.865C305.925 316.865 308.351 315.921 308.959 316.865C308.959 316.865 321.97 294.509 323.319 292.891C324.668 291.273 324.396 288.045 324.396 288.045C324.396 288.045 326.419 285.893 325.745 283.872C325.071 281.852 329.659 274.846 329.659 274.846L325.481 270.944L354.472 259.363Z" fill="white"/>
<path opacity="0.1" d="M228.93 344.851C227.464 346.63 228.387 354.617 228.387 354.617L232.434 361.308C232.434 361.308 232.192 365.627 232.177 371.446L238.979 373.569C239.594 373.761 240.246 373.803 240.88 373.692C241.515 373.581 242.113 373.32 242.626 372.931C243.139 372.542 243.551 372.036 243.829 371.456C244.106 370.875 244.24 370.237 244.22 369.594L243.047 331.813L227.178 337.875C228.527 338.812 227.046 341.11 227.046 341.11C227.046 341.11 230.41 343.072 228.93 344.851Z" fill="black"/>
<path d="M228.116 344.039C226.65 345.818 227.574 353.811 227.574 353.811L231.62 360.502C231.62 360.502 231.378 364.814 231.356 370.641L238.283 372.801C238.885 372.988 239.523 373.028 240.144 372.919C240.765 372.81 241.351 372.554 241.853 372.173C242.355 371.792 242.758 371.297 243.03 370.729C243.302 370.16 243.433 369.536 243.414 368.906L242.234 331.008L226.357 337.07C227.713 338.007 226.233 340.298 226.233 340.298C226.233 340.298 229.582 342.267 228.116 344.039Z" fill="white"/>
<path d="M222.86 326.031C222.86 326.031 223.938 332.904 226.635 333.307C229.333 333.71 230.542 344.427 233.233 344.046C235.923 343.665 234.141 334.083 234.046 332.224C233.951 330.364 236.978 322.663 234.713 320.914C232.448 319.164 225.279 320.914 225.279 320.914L222.86 326.031Z" fill="#CF6F80"/>
<path opacity="0.1" d="M217.121 273.096L212.034 262.848C212.034 262.848 210.011 270.659 210.011 274.831C210.011 279.004 207.182 279.414 207.182 279.414C207.182 279.414 204.081 283.074 205.716 285.739C207.35 288.403 208.01 295.036 208.01 295.036C208.01 295.036 207.475 307.693 209.901 309.442C212.327 311.192 212.833 315.372 212.833 315.372C212.833 315.372 217.29 323.314 217.151 325.203C217.011 327.092 223.352 339.881 223.352 339.881C223.352 339.881 220.251 323.988 238.32 317.121C238.32 317.121 238.459 311.726 237.11 310.247C235.761 308.769 233.658 308.095 234.977 300.621C236.297 293.147 235.358 284.216 235.358 282.423C235.358 280.629 231.312 269.443 231.312 269.443L217.121 273.096Z" fill="black"/>
<path d="M214.922 261.384L210.48 262.848C210.48 262.848 208.45 270.659 208.45 274.831C208.45 279.004 205.62 279.414 205.62 279.414C205.62 279.414 202.52 283.074 204.154 285.739C205.789 288.404 206.441 295.036 206.441 295.036C206.441 295.036 205.906 307.693 208.332 309.442C210.759 311.192 211.301 315.372 211.301 315.372C211.301 315.372 215.75 323.315 215.611 325.203C215.472 327.092 221.82 339.881 221.82 339.881C221.82 339.881 218.712 323.988 236.787 317.122C236.787 317.122 236.919 311.726 235.571 310.248C234.222 308.769 232.118 308.096 233.438 300.621C234.757 293.147 233.819 284.216 233.819 282.423C233.819 280.629 229.773 269.444 229.773 269.444L214.922 261.384Z" fill="white"/>
<path opacity="0.1" d="M313.035 527.02C313.035 527.02 305.954 522.577 301.307 525.805C296.659 529.033 313.035 527.02 313.035 527.02Z" fill="black"/>
<path opacity="0.1" d="M258.016 513.28C258.016 513.28 251.748 512.475 246.485 518.133C241.222 523.792 258.016 513.28 258.016 513.28Z" fill="black"/>
<g opacity="0.1">
<path opacity="0.1" d="M248.845 159.256C249.747 160.032 250.905 160.589 251.506 161.621C252.019 162.507 252.034 163.597 252.445 164.549C252.855 165.501 254.05 166.277 254.878 165.676C255.069 159.088 258.323 152.902 262.318 147.631C263.435 146.041 264.793 144.633 266.342 143.459C267.911 142.281 269.864 141.73 271.818 141.914C274.017 142.214 275.952 143.708 278.173 143.891C281.105 144.14 283.737 142.112 286.647 142.009C287.829 142.021 288.996 142.285 290.068 142.784C291.14 143.283 292.092 144.004 292.862 144.901C294.393 146.703 295.529 148.805 296.198 151.072C297.349 154.512 297.977 158.105 298.059 161.731C298.103 163.773 298.294 166.321 300.185 167.082C300.141 167.623 300.141 168.166 300.185 168.707C298.279 167.975 298.089 165.398 298.045 163.348C297.963 159.722 297.335 156.129 296.183 152.69C295.514 150.421 294.378 148.317 292.848 146.511C292.076 145.617 291.123 144.898 290.051 144.4C288.979 143.903 287.814 143.639 286.632 143.627C283.7 143.73 281.061 145.75 278.158 145.509C275.959 145.326 274.01 143.825 271.803 143.532C269.849 143.348 267.896 143.899 266.328 145.077C264.778 146.251 263.42 147.659 262.303 149.249C258.309 154.513 255.054 160.684 254.863 167.287C254.035 167.894 252.84 167.104 252.43 166.167C252.019 165.23 252.005 164.132 251.492 163.239C250.891 162.206 249.732 161.657 248.831 160.881C246.544 158.912 245.972 155.596 246.06 152.587C246.06 152.492 246.06 152.397 246.06 152.309C246.199 154.915 246.896 157.573 248.845 159.256Z" fill="black"/>
<path opacity="0.1" d="M302.956 158.736C304.642 156.884 306.943 155.647 308.49 153.685C309.792 151.949 310.536 149.858 310.623 147.69C310.854 150.399 310.096 153.1 308.49 155.296C306.943 157.265 304.642 158.502 302.956 160.354C301.337 162.166 300.365 164.462 300.192 166.884C300.08 165.41 300.267 163.929 300.742 162.529C301.217 161.129 301.97 159.839 302.956 158.736Z" fill="black"/>
<path opacity="0.1" d="M244.631 136.636C245.063 138.43 245.833 140.135 246.184 141.944C246.393 143.152 246.469 144.379 246.412 145.604C246.387 144.906 246.311 144.211 246.184 143.525C245.833 141.709 245.063 140.011 244.631 138.217C244.379 137.228 244.297 136.203 244.389 135.187C244.434 135.675 244.515 136.16 244.631 136.636Z" fill="black"/>
</g>
<path opacity="0.1" d="M97.2918 556.785C136.738 556.785 168.716 551.656 168.716 545.329C168.716 539.002 136.738 533.872 97.2918 533.872C57.8454 533.872 25.8678 539.002 25.8678 545.329C25.8678 551.656 57.8454 556.785 97.2918 556.785Z" fill="#5C76FF"/>
<path d="M99.5934 325.862H94.9975V429.205H99.5934V325.862Z" fill="#535461"/>
<path d="M128.474 428.89L128.188 433.546L127.777 440.134L127.609 442.872L127.206 449.46L127.03 452.198L126.619 458.787L121.987 533.506C121.785 536.721 120.365 539.739 118.014 541.944C115.664 544.15 112.56 545.379 109.335 545.38H85.2485C82.0238 545.379 78.921 544.15 76.5717 541.944C74.2225 539.738 72.8037 536.72 72.6041 533.506L67.9935 458.735L67.583 452.147L67.4145 449.409L67.004 442.821L66.8354 440.083L66.4249 433.494L66.1317 428.839C66.0808 427.943 66.2137 427.046 66.5224 426.203C66.831 425.36 67.3089 424.589 67.9266 423.937C68.5443 423.285 69.289 422.766 70.1147 422.412C70.9405 422.058 71.83 421.876 72.7287 421.877H121.994C122.889 421.885 123.774 422.076 124.592 422.438C125.411 422.8 126.146 423.326 126.754 423.983C127.361 424.64 127.827 425.415 128.122 426.259C128.418 427.103 128.538 427.998 128.474 428.89Z" fill="#3F3D56"/>
<path d="M128.188 433.546L127.777 440.112H66.806L66.3956 433.546H128.188Z" fill="#9D9CB5"/>
<path d="M127.609 442.85L127.206 449.424H67.3852L66.9747 442.85H127.609Z" fill="#9D9CB5"/>
<path d="M127.03 452.169L126.627 458.735H67.9644L67.5539 452.169H127.03Z" fill="#9D9CB5"/>
<path d="M59.3808 364.594C86.1428 383.935 97.3138 414.183 97.3138 414.183C97.3138 414.183 65.0616 413.078 38.2922 393.737C11.5229 374.396 0.373856 344.156 0.373856 344.156C0.373856 344.156 32.6114 345.254 59.3808 364.594Z" fill="url(#paint10_linear)"/>
<path d="M0.351822 344.156C0.351822 344.156 33.8355 362.713 44.574 378.079C55.3126 393.444 97.3138 414.183 97.3138 414.183" stroke="#535461" stroke-width="2" stroke-miterlimit="10"/>
<path d="M76.6577 325.635C91.2225 336.155 97.3138 352.618 97.3138 352.618C97.3138 352.618 79.7583 352.018 65.1861 341.498C50.614 330.979 44.5374 314.508 44.5374 314.508C44.5374 314.508 62.0855 315.108 76.6577 325.635Z" fill="url(#paint11_linear)"/>
<path d="M44.5374 314.508C44.5374 314.508 62.7599 324.61 68.602 332.97C74.444 341.33 97.3138 352.618 97.3138 352.618" stroke="#535461" stroke-width="2" stroke-miterlimit="10"/>
<path d="M118.461 351.784C101.727 370.151 98.1861 394.154 98.1861 394.154C98.1861 394.154 121.782 388.371 138.501 369.997C155.221 351.623 158.776 327.626 158.776 327.626C158.776 327.626 135.196 333.417 118.461 351.784Z" fill="url(#paint12_linear)"/>
<path d="M158.791 327.634C158.791 327.634 136.991 346.462 131.45 359.434C125.908 372.405 98.1861 394.154 98.1861 394.154" stroke="#535461" stroke-width="2" stroke-miterlimit="10"/>
</g>
<defs>
<linearGradient id="paint0_linear" x1="64.1343" y1="59.9092" x2="102.975" y2="70.1046" gradientUnits="userSpaceOnUse">
<stop stop-color="#2196F3"/>
<stop offset="1" stop-color="#5C76FF"/>
</linearGradient>
<linearGradient id="paint1_linear" x1="47.4584" y1="89.5595" x2="119.094" y2="106.089" gradientUnits="userSpaceOnUse">
<stop stop-color="#2196F3"/>
<stop offset="1" stop-color="#5C76FF"/>
</linearGradient>
<linearGradient id="paint2_linear" x1="456.138" y1="-240.2" x2="1057.7" y2="26.7217" gradientUnits="userSpaceOnUse">
<stop stop-color="#2196F3"/>
<stop offset="1" stop-color="#5C76FF"/>
</linearGradient>
<linearGradient id="paint3_linear" x1="47.4584" y1="167.683" x2="109.466" y2="196.553" gradientUnits="userSpaceOnUse">
<stop stop-color="#2196F3"/>
<stop offset="1" stop-color="#5C76FF"/>
</linearGradient>
<linearGradient id="paint4_linear" x1="46.5788" y1="163.003" x2="122.432" y2="173.257" gradientUnits="userSpaceOnUse">
<stop stop-color="#2196F3"/>
<stop offset="1" stop-color="#5C76FF"/>
</linearGradient>
<linearGradient id="paint5_linear" x1="393.792" y1="270.39" x2="590.791" y2="355.361" gradientUnits="userSpaceOnUse">
<stop stop-color="#2196F3"/>
<stop offset="1" stop-color="#5C76FF"/>
</linearGradient>
<linearGradient id="paint6_linear" x1="281.208" y1="567.239" x2="281.208" y2="116.783" gradientUnits="userSpaceOnUse">
<stop stop-color="#808080" stop-opacity="0.25"/>
<stop offset="0.54" stop-color="#808080" stop-opacity="0.12"/>
<stop offset="1" stop-color="#808080" stop-opacity="0.1"/>
</linearGradient>
<linearGradient id="paint7_linear" x1="306.935" y1="385.49" x2="267.682" y2="390.105" gradientUnits="userSpaceOnUse">
<stop stop-color="#2196F3"/>
<stop offset="1" stop-color="#5C76FF"/>
</linearGradient>
<linearGradient id="paint8_linear" x1="250.817" y1="398.837" x2="212.944" y2="403.754" gradientUnits="userSpaceOnUse">
<stop stop-color="#2196F3"/>
<stop offset="1" stop-color="#5C76FF"/>
</linearGradient>
<linearGradient id="paint9_linear" x1="271.132" y1="68.464" x2="207.598" y2="73.5064" gradientUnits="userSpaceOnUse">
<stop stop-color="#2196F3"/>
<stop offset="1" stop-color="#5C76FF"/>
</linearGradient>
<linearGradient id="paint10_linear" x1="48.8438" y1="312.325" x2="130.329" y2="349.699" gradientUnits="userSpaceOnUse">
<stop stop-color="#2196F3"/>
<stop offset="1" stop-color="#5C76FF"/>
</linearGradient>
<linearGradient id="paint11_linear" x1="70.9256" y1="297.185" x2="115.282" y2="317.538" gradientUnits="userSpaceOnUse">
<stop stop-color="#2196F3"/>
<stop offset="1" stop-color="#5C76FF"/>
</linearGradient>
<linearGradient id="paint12_linear" x1="128.481" y1="297.386" x2="184.982" y2="314.435" gradientUnits="userSpaceOnUse">
<stop stop-color="#2196F3"/>
<stop offset="1" stop-color="#5C76FF"/>
</linearGradient>
<clipPath id="clip0">
<rect width="810" height="573" fill="white"/>
</clipPath>
</defs>
</svg>
