<svg width="70" height="196" viewBox="0 0 70 196" fill="none" xmlns="http://www.w3.org/2000/svg">
<g opacity="0.3" clip-path="url(#clip0)">
<path opacity="0.1" d="M92.091 195.89C105.581 195.89 116.516 194.135 116.516 191.971C116.516 189.807 105.581 188.052 92.091 188.052C78.6013 188.052 67.6658 189.807 67.6658 191.971C67.6658 194.135 78.6013 195.89 92.091 195.89Z" fill="#5C76FF"/>
<path opacity="0.1" d="M3.46927 84.6862H28.9097V119.324H5.33175C5.26908 119.68 5.20892 120.038 5.14374 120.396H28.9097V148.331C28.8671 148.318 28.8295 148.303 28.7894 148.288C28.1176 148.023 27.4508 147.743 26.7841 147.442L26.3579 147.249C25.6895 146.934 25.021 146.6 24.3526 146.248C24.1194 146.125 23.8863 145.997 23.6557 145.867C19.9447 143.79 16.5735 141.159 13.659 138.064C13.5738 137.982 13.4936 137.894 13.4083 137.814C13.0022 137.373 12.6037 136.928 12.2176 136.472L11.7915 135.971C11.3353 135.413 10.8941 134.839 10.4655 134.258C10.4028 134.173 10.3426 134.088 10.2775 134.008C8.53417 131.593 7.08669 128.979 5.96594 126.22C5.93085 126.138 5.90077 126.048 5.86818 125.97C5.52393 125.085 5.21894 124.192 4.95323 123.291C4.83793 122.913 4.72763 122.54 4.63238 122.146C4.59728 122.031 4.5672 121.919 4.53963 121.806C3.11582 116.254 2.94788 110.488 2.94788 104.761C2.94788 104.092 2.94788 103.421 2.94788 102.758C2.94788 100.441 2.97545 98.1102 3.01556 95.7815C3.01556 95.178 3.04062 94.5771 3.05316 93.9711C3.08825 92.4336 3.13839 90.8961 3.20356 89.3587C3.2186 88.9305 3.23865 88.5048 3.26121 88.0791C3.26121 87.8337 3.27375 87.5883 3.29881 87.3429C3.35897 86.4515 3.40911 85.5676 3.46927 84.6862Z" fill="#5C76FF"/>
<path opacity="0.1" d="M28.9097 46.1191H14.955C17.2234 42.5723 19.7019 39.1641 22.3773 35.9127C24.4503 33.3686 26.6387 30.8896 28.9097 28.5008V46.1191Z" fill="url(#paint0_linear)"/>
<path opacity="0.1" d="M28.9097 47.1909V83.6144H3.54947C3.54947 83.5093 3.56702 83.4016 3.57454 83.2964C3.5971 83.0085 3.61966 82.7205 3.64472 82.435C3.6723 82.0995 3.70238 81.7615 3.73496 81.4334C3.76755 81.1054 3.80265 80.7048 3.84025 80.3417C3.87785 79.9786 3.91294 79.6105 3.95555 79.2474C3.99817 78.8843 4.03577 78.5213 4.08089 78.1607C4.12601 77.8001 4.16612 77.4345 4.21374 77.0739C4.25134 76.7734 4.29145 76.4755 4.33156 76.175C4.38921 75.7518 4.44937 75.3261 4.51455 74.9054C4.51455 74.8428 4.53209 74.7777 4.54212 74.7176C4.99964 71.6381 5.62304 68.5854 6.40961 65.573C7.23296 62.4128 8.28434 59.3164 9.55551 56.3081C10.9065 53.1609 12.4884 50.1178 14.2882 47.2034L28.9097 47.1909Z" fill="url(#paint1_linear)"/>
<path opacity="0.1" d="M34.9835 84.6836V119.324H89.3211V84.6836H34.9835ZM34.9835 120.394V150.141C35.2943 150.206 35.6026 150.269 35.9084 150.322C36.3245 150.402 36.7381 150.474 37.1618 150.537C37.242 150.549 37.3247 150.562 37.4124 150.57C37.5779 150.597 37.7483 150.62 37.9138 150.642C38.3324 150.7 38.7485 150.747 39.1671 150.785C39.3652 150.805 39.5657 150.822 39.7662 150.837L40.25 150.875C40.5132 150.895 40.7739 150.91 41.0321 150.918C41.1925 150.918 41.353 150.933 41.5184 150.938C41.6437 150.938 41.7691 150.938 41.8994 150.938C42.0298 150.938 42.2153 150.938 42.3732 150.938C42.5888 150.938 42.8044 150.938 43.0174 150.938H43.3057C43.5213 150.938 43.7368 150.938 43.9499 150.918H43.965C44.1128 150.918 44.2632 150.918 44.4136 150.898C44.4554 150.9 44.4972 150.9 44.539 150.898C44.6643 150.898 44.7897 150.898 44.91 150.88H44.9977L45.8375 150.815C46.1132 150.79 46.3914 150.757 46.6722 150.727L47.2437 150.66C49.5689 150.334 51.8682 149.846 54.1246 149.197C59.1931 147.785 64.1514 145.809 69.2174 144.362C75.7674 142.497 83.0042 141.58 89.3336 143.861V120.394H34.9835ZM89.3211 46.1191V0.00250813C83.3721 -0.0618763 77.4392 0.633192 71.6665 2.07083C57.9072 5.52388 45.5617 13.0134 34.9835 22.5788V46.1166H37.7107V47.1859H34.9835V83.6144H89.3211V47.1884H48.9082V46.1191H89.3211ZM159.115 30.5416C155.711 30.4214 152.327 29.3447 149.266 27.682C143.413 24.5019 138.738 19.5915 133.514 15.4473C122.66 6.81596 109.199 1.60759 95.3898 0.315511V46.1191H172.96L173.153 45.9163L159.115 30.5416ZM166.181 29.2896L173.674 37.5028V27.1361C171.165 27.4466 168.966 28.1853 166.191 29.2796L166.181 29.2896ZM173.674 157.528V120.394H157.709C157.666 120.236 157.624 120.076 157.573 119.915C157.621 120.076 157.661 120.236 157.706 120.394H95.3999V147.249C95.9914 147.687 96.5755 148.148 97.1545 148.616C97.7787 149.117 98.3954 149.646 99.0145 150.164L99.6387 150.68C99.937 150.93 100.238 151.18 100.541 151.416C101.143 151.903 101.75 152.384 102.363 152.858C102.667 153.109 102.978 153.334 103.286 153.569C108.181 157.308 113.344 160.681 118.735 163.663C119.943 164.331 121.162 164.983 122.392 165.619C123.212 166.037 124.036 166.453 124.864 166.856C126.107 167.462 127.36 168.046 128.624 168.609C140.271 173.831 152.588 177.416 165.221 179.258C168.027 179.672 170.844 179.998 173.671 180.235V157.526H173.922L173.674 157.528ZM95.3999 47.1884V83.6144H173.684V47.1884H95.3999ZM95.3999 84.6836V119.324H173.684V84.6836H95.3999ZM179.76 27.0911V38.6546L189.323 28.1728C186.155 27.662 182.967 27.2972 179.76 27.0785V27.0911ZM179.76 84.6961V119.324H255.901V84.6836L179.76 84.6961ZM255.623 160.278L255.891 120.394H179.76V180.633C184.665 180.839 189.576 180.78 194.475 180.458H194.56C196.899 180.311 199.228 180.097 201.546 179.817H201.599C213.964 178.379 226.056 175.156 237.494 170.249L255.623 160.278ZM270.583 90.3878C270.297 89.7142 269.999 89.0456 269.695 88.3846C269.129 87.1326 268.53 85.9156 267.913 84.6986H261.972V119.324H276.992C276.985 109.519 274.501 99.5024 270.59 90.3753L270.583 90.3878ZM261.972 120.406V154.711C266.204 150.66 269.778 146.025 272.353 140.726C275.448 134.346 276.865 127.437 276.98 120.401L261.972 120.406ZM261.972 74.6024V83.6169H267.357C265.728 80.5137 263.933 77.5004 261.98 74.5899L261.972 74.6024ZM210.334 33.887C209.938 33.7367 209.542 33.584 209.144 33.4362C204.94 31.8856 200.645 30.596 196.282 29.575L181.648 45.6183L181.367 45.9163L181.555 46.1216H233.639C226.385 41.1337 218.565 37.0226 210.342 33.8745L210.334 33.887ZM235.166 47.2009H180.828L179.76 48.1774V83.6144H189.12H189.135H255.911V66.4493C249.871 59.1515 242.899 52.6761 235.173 47.1884L235.166 47.2009Z" fill="url(#paint2_linear)"/>
<path opacity="0.1" d="M28.9097 65.5628V83.6143H3.54947C3.54947 83.5091 3.56702 83.4015 3.57454 83.2963C3.5971 83.0083 3.61966 82.7204 3.64472 82.4349C3.6723 82.0994 3.70238 81.7613 3.73496 81.4333C3.76755 81.1053 3.80265 80.7046 3.84025 80.3416C3.87785 79.9785 3.91294 79.6104 3.95555 79.2473C3.99817 78.8842 4.03577 78.5211 4.08089 78.1605C4.12601 77.8 4.16612 77.4344 4.21374 77.0738C4.25134 76.7733 4.29145 76.4753 4.33156 76.1749C4.38921 75.7517 4.44937 75.326 4.51455 74.9053C4.51455 74.8427 4.53209 74.7776 4.54212 74.7175C4.99964 71.638 5.62304 68.5853 6.40961 65.5728L28.9097 65.5628Z" fill="url(#paint3_linear)"/>
<path opacity="0.1" d="M3.46927 84.6862H28.9097V119.324H5.33175C5.26908 119.68 5.20892 120.038 5.14374 120.396H28.9097V148.331C28.8671 148.318 28.8295 148.303 28.7894 148.288C28.1176 148.023 27.4508 147.743 26.7841 147.442L26.3579 147.249C25.6895 146.934 25.021 146.6 24.3526 146.248C24.1194 146.125 23.8863 145.997 23.6557 145.867C19.9447 143.79 16.5735 141.159 13.659 138.064C13.5738 137.982 13.4936 137.894 13.4083 137.814C13.0022 137.373 12.6037 136.928 12.2176 136.472L11.7915 135.971C11.3353 135.413 10.8941 134.839 10.4655 134.258C10.4028 134.173 10.3426 134.088 10.2775 134.008C8.53417 131.593 7.08669 128.979 5.96594 126.22C5.93085 126.138 5.90077 126.048 5.86818 125.97C5.52393 125.085 5.21894 124.192 4.95323 123.291C4.83793 122.913 4.72763 122.54 4.63238 122.146C4.59728 122.031 4.5672 121.919 4.53963 121.806C3.11582 116.254 2.94788 110.488 2.94788 104.761C2.94788 104.092 2.94788 103.421 2.94788 102.758C2.94788 100.441 2.97545 98.1102 3.01556 95.7815C3.01556 95.178 3.04062 94.5771 3.05316 93.9711C3.08825 92.4336 3.13839 90.8961 3.20356 89.3587C3.2186 88.9305 3.23865 88.5048 3.26121 88.0791C3.26121 87.8337 3.27375 87.5883 3.29881 87.3429C3.35897 86.4515 3.40911 85.5676 3.46927 84.6862Z" fill="url(#paint4_linear)"/>
<path opacity="0.1" d="M54.1121 52.4043V83.6144H34.9835V52.4043H37.7107V41.8373H48.9057V52.4043H54.1121Z" fill="#5C76FF"/>
<path opacity="0.1" d="M54.112 84.6837H34.9859V119.322H54.112V84.6837Z" fill="#5C76FF"/>
<path opacity="0.1" d="M34.9835 120.396H54.112V149.192C51.8556 149.84 49.5563 150.328 47.2312 150.652L46.6596 150.722C46.3789 150.755 46.1007 150.782 45.8249 150.81C45.5492 150.837 45.2634 150.857 44.9852 150.875H44.8974C44.7771 150.875 44.6468 150.89 44.529 150.892H44.4011C44.2507 150.892 44.1003 150.907 43.9499 150.912C43.7368 150.925 43.5238 150.928 43.3057 150.93C43.2129 150.93 43.1252 150.93 43.0325 150.93C42.8169 150.93 42.6038 150.93 42.3882 150.93H41.9145C41.7866 150.93 41.6638 150.93 41.5309 150.93L41.0472 150.912C40.7965 150.912 40.5258 150.885 40.2651 150.867L39.7838 150.832L39.1847 150.777C38.7636 150.74 38.3449 150.692 37.9313 150.635L37.43 150.564L37.1793 150.529C36.7607 150.464 36.3471 150.394 35.926 150.314C35.6177 150.261 35.3118 150.196 35.001 150.134L34.9835 120.396Z" fill="#5C76FF"/>
<path opacity="0.1" d="M47.2487 54.8606H40.1197V61.9821H47.2487V54.8606Z" fill="#5C76FF"/>
<path opacity="0.1" d="M47.2487 71.4022H40.1197V78.5237H47.2487V71.4022Z" fill="#5C76FF"/>
<path opacity="0.1" d="M47.2487 87.9438H40.1197V95.0653H47.2487V87.9438Z" fill="#5C76FF"/>
<path opacity="0.1" d="M47.2487 104.483H40.1197V111.604H47.2487V104.483Z" fill="#5C76FF"/>
<path opacity="0.1" d="M47.2487 121.024H40.1197V128.146H47.2487V121.024Z" fill="#5C76FF"/>
<path opacity="0.1" d="M47.2487 137.566H40.1197V144.688H47.2487V137.566Z" fill="#5C76FF"/>
<path opacity="0.1" d="M4.51208 74.7126V78.7866H28.9098V74.7126H4.51208ZM6.94358 78.5312H4.95326V74.963H6.95862L6.94358 78.5312ZM9.37257 78.5312H7.36721V74.963H9.37257V78.5312ZM11.7965 78.5312H9.79119V74.963H11.7965V78.5312ZM14.2255 78.5312H12.2227V74.963H14.228L14.2255 78.5312ZM16.652 78.5312H14.6467V74.963H16.652V78.5312ZM19.081 78.5312H17.0757V74.963H19.081V78.5312ZM21.51 78.5312H19.5046V74.963H21.51V78.5312ZM23.9365 78.5312H21.9311V74.963H23.9365V78.5312ZM26.363 78.5312H24.3576V74.963H26.363V78.5312ZM28.7894 78.5312H26.7841V74.963H28.7894V78.5312Z" fill="#5C76FF"/>
<path opacity="0.1" d="M4.51208 86.5666V90.6406H28.9098V86.5666H4.51208ZM6.94358 90.3827H4.95326V86.8245H6.95862L6.94358 90.3827ZM9.37257 90.3827H7.36721V86.8245H9.37257V90.3827ZM11.7965 90.3827H9.79119V86.8245H11.7965V90.3827ZM14.2255 90.3827H12.2227V86.8245H14.228L14.2255 90.3827ZM16.652 90.3827H14.6467V86.8245H16.652V90.3827ZM19.081 90.3827H17.0757V86.8245H19.081V90.3827ZM21.51 90.3827H19.5046V86.8245H21.51V90.3827ZM23.9365 90.3827H21.9311V86.8245H23.9365V90.3827ZM26.363 90.3827H24.3576V86.8245H26.363V90.3827ZM28.7894 90.3827H26.7841V86.8245H28.7894V90.3827Z" fill="#5C76FF"/>
<path opacity="0.1" d="M4.51208 98.4257V102.507H28.9098V98.4257H4.51208ZM6.94358 102.242H4.95326V98.6811H6.95862L6.94358 102.242ZM9.37257 102.242H7.36721V98.6811H9.37257V102.242ZM11.7965 102.242H9.79119V98.6811H11.7965V102.242ZM14.2255 102.242H12.2227V98.6811H14.228L14.2255 102.242ZM16.652 102.242H14.6467V98.6811H16.652V102.242ZM19.081 102.242H17.0757V98.6811H19.081V102.242ZM21.51 102.242H19.5046V98.6811H21.51V102.242ZM23.9365 102.242H21.9311V98.6811H23.9365V102.242ZM26.363 102.242H24.3576V98.6811H26.363V102.242ZM28.7894 102.242H26.7841V98.6811H28.7894V102.242Z" fill="#5C76FF"/>
<path opacity="0.1" d="M4.51208 110.285V114.354H28.9098V110.285H4.51208ZM6.94358 114.101H4.95326V110.538H6.95862L6.94358 114.101ZM9.37257 114.101H7.36721V110.538H9.37257V114.101ZM11.7965 114.101H9.79119V110.538H11.7965V114.101ZM14.2255 114.101H12.2227V110.538H14.228L14.2255 114.101ZM16.652 114.101H14.6467V110.538H16.652V114.101ZM19.081 114.101H17.0757V110.538H19.081V114.101ZM21.51 114.101H19.5046V110.538H21.51V114.101ZM23.9365 114.101H21.9311V110.538H23.9365V114.101ZM26.363 114.101H24.3576V110.538H26.363V114.101ZM28.7894 114.101H26.7841V110.538H28.7894V114.101Z" fill="#5C76FF"/>
<path opacity="0.1" d="M4.61731 122.141C4.71507 122.524 4.82536 122.907 4.94067 123.286V122.397H6.94603V125.957H5.87316C5.90575 126.04 5.93834 126.13 5.97092 126.208H28.9097V122.141H4.61731ZM9.38003 125.957H7.37468V122.397H9.38003V125.957ZM11.804 125.957H9.79865V122.397H11.804V125.957ZM14.233 125.957H12.2226V122.397H14.228L14.233 125.957ZM16.6595 125.957H14.6541V122.397H16.6595V125.957ZM19.0885 125.957H17.0831V122.397H19.0885V125.957ZM21.5175 125.957H19.5121V122.397H21.5175V125.957ZM23.9439 125.957H21.9386V122.397H23.9439V125.957ZM26.3704 125.957H24.3651V122.397H26.3704V125.957ZM28.7969 125.957H26.7915V122.397H28.7969V125.957Z" fill="#5C76FF"/>
<path opacity="0.1" d="M10.2824 134C10.3451 134.08 10.4053 134.171 10.4704 134.251H11.7965V135.961C11.9394 136.131 12.0797 136.301 12.2251 136.462V134.241H14.2305V137.814H13.4183C13.4985 137.897 13.5762 137.984 13.669 138.064H28.9172V134H10.2824ZM16.652 137.814H14.6466V134.256H16.652V137.814ZM19.0809 137.814H17.0756V134.256H19.0809V137.814ZM21.5099 137.814H19.5046V134.256H21.5099V137.814ZM23.9364 137.814H21.9311V134.256H23.9364V137.814ZM26.3629 137.814H24.3575V134.256H26.3629V137.814ZM28.7894 137.814H26.784V134.256H28.7894V137.814Z" fill="#5C76FF"/>
<path opacity="0.1" d="M23.6657 145.857C23.8939 145.987 24.127 146.107 24.3626 146.238V146.112H26.368V147.239L26.7941 147.437V146.112H28.7995V148.278C28.8379 148.297 28.8782 148.313 28.9198 148.323V145.857H23.6657Z" fill="#5C76FF"/>
<path opacity="0.1" d="M189.125 83.6143H189.14H189.125ZM173.684 157.518H173.935H173.684ZM157.573 119.915C157.621 120.075 157.661 120.236 157.706 120.393C157.666 120.236 157.624 120.075 157.573 119.915ZM189.125 83.6068H189.14H189.125ZM37.7208 46.1116V47.1808H48.9182V46.1116H37.7208ZM173.684 157.518H173.935H173.684ZM157.573 119.915C157.621 120.075 157.661 120.236 157.706 120.393C157.666 120.236 157.624 120.075 157.573 119.915ZM189.125 83.6068H189.14H189.125ZM173.684 157.511H173.935H173.684ZM157.573 119.915C157.621 120.075 157.661 120.236 157.706 120.393C157.666 120.236 157.624 120.075 157.573 119.915Z" fill="#5C76FF"/>
<path d="M69.7781 95.0702C69.7781 95.0702 70.7657 94.9325 70.7657 93.4952C70.7657 92.0579 71.4726 89.3735 71.4726 89.3735C71.4726 89.361 72.0842 84.6985 72.929 83.9574C73.7737 83.2162 74.8591 78.8642 74.8591 78.8642C74.8591 78.8642 75.0446 76.5029 75.4231 75.9946C75.8016 75.4862 76.313 74.2417 77.0675 72.4664C77.822 70.691 80.9679 69.4616 80.9679 69.4616C80.9679 69.4616 86.6556 66.1663 88.2674 65.092C88.414 65.0038 88.5509 64.9006 88.676 64.784C88.9568 64.4159 90.1801 64.4084 90.1801 64.4084C90.3079 63.6021 90.4307 62.6756 90.4708 61.8368C90.4708 61.7467 90.4708 61.6565 90.4834 61.5664C88.6861 60.5051 87.3323 58.8319 86.6707 56.8538C86.6406 56.7586 86.6155 56.6585 86.588 56.5633C86.4803 56.5279 86.3812 56.4704 86.297 56.3945C86.2128 56.3186 86.1454 56.226 86.0992 56.1226C85.9538 55.7996 85.9513 55.4215 85.7708 55.121C85.5602 54.7654 85.1591 54.5751 84.8433 54.3072C84.0462 53.6311 83.8406 52.4918 83.8782 51.4551C83.9033 50.6163 84.0387 49.7699 83.986 48.9361L83.971 48.7257C83.9559 48.6005 83.9384 48.4753 83.9158 48.3551C83.793 47.7341 83.5248 47.1482 83.3744 46.5322C83.224 45.9162 83.2089 45.2226 83.5599 44.6918C84.0737 43.913 85.1441 43.7578 86.0841 43.6776C87.1495 43.5875 88.102 43.7052 88.7838 42.8212C89.1029 42.3593 89.4619 41.9261 89.8567 41.5267C89.9971 41.3965 91.3607 40.5651 91.3607 40.51C92.6916 39.8943 94.2002 39.7787 95.6096 40.1845C96.3164 40.3898 96.9832 40.7254 97.7001 40.8931C99.2468 41.2587 101.027 40.8631 102.34 41.747C103.072 42.2478 103.511 43.0441 103.922 43.8204C104.256 44.4597 104.595 45.0982 104.939 45.7359C105.493 46.7851 106.057 47.8518 106.291 49.0137C106.34 49.2665 106.37 49.5226 106.381 49.7799V49.7925C106.381 49.8851 106.381 49.9777 106.381 50.0704V50.1881C106.381 50.2757 106.381 50.3609 106.366 50.4385C106.351 50.5161 106.353 50.5411 106.346 50.5937C106.338 50.6463 106.326 50.764 106.311 50.8441C106.296 50.9243 106.266 51.0645 106.235 51.1747C106.223 51.2222 106.205 51.2673 106.19 51.3124C106.165 51.3975 106.135 51.4802 106.103 51.5628C106.085 51.6054 106.067 51.6504 106.047 51.693C106.01 51.7806 105.965 51.8658 105.92 51.9434C105.9 51.9785 105.885 52.011 105.864 52.0436C105.795 52.16 105.718 52.2721 105.634 52.3791C105.097 53.0477 104.308 53.4734 103.724 54.0994C103.724 54.1244 103.724 54.1494 103.724 54.172C103.724 54.2421 103.724 54.3097 103.724 54.3798C103.693 55.7759 103.321 57.1434 102.64 58.3631C101.959 59.5829 100.991 60.6181 99.8183 61.3786C99.8183 61.4737 99.8058 61.5714 99.8008 61.6665C99.7519 62.4098 99.7611 63.1558 99.8283 63.8976C99.9304 63.7775 100.058 63.6819 100.202 63.6177C100.346 63.5536 100.503 63.5226 100.661 63.527C100.768 63.5218 100.876 63.531 100.981 63.5546L101.004 63.537V63.5596C101.555 63.6948 102.235 64.2682 102.884 65.8983C102.884 65.8983 104.859 68.1219 106.363 68.0293C107.867 67.9366 111.675 70.343 111.675 70.343C111.675 70.343 115.39 72.7518 116.187 75.2058C116.633 76.5973 117.167 77.9589 117.786 79.2823L122.379 88.735L123.226 96.2346C123.226 96.2346 122.757 99.5699 122.85 100.078C122.943 100.587 120.922 105.171 120.922 105.171C120.922 105.171 114.247 116.888 111.52 117.489L111.324 117.351C111.207 117.412 111.084 117.458 110.956 117.489L110.394 117.093C110.36 117.534 110.375 117.977 110.437 118.415C110.813 119.572 110.296 127.122 109.64 128.602C108.983 130.081 109.216 149.485 109.216 149.485L109.309 151.198C109.309 151.198 109.309 151.253 109.286 151.348L109.309 151.754L109.241 151.789C109.171 152.332 109.194 152.883 109.309 153.419C109.544 154.17 109.64 156.294 109.64 156.294C109.64 156.294 111.517 168.283 110.627 170.692C109.737 173.101 108.98 175.74 108.98 175.74C108.98 175.74 108.04 178.745 108.935 179.258C109.83 179.771 112.374 180.633 111.85 181.885C111.374 183.042 109.567 186.142 109.299 186.595L109.321 186.833L109.69 190.822C109.63 191.348 109.487 191.862 109.266 192.344C108.862 193.213 108.078 194.114 106.586 194.017C106.336 193.999 106.045 193.969 105.764 193.932C103.034 193.566 99.6729 192.349 99.6729 192.349C99.8474 192.238 100.007 192.106 100.149 191.956C100.283 191.826 100.39 191.67 100.462 191.498C100.534 191.326 100.57 191.141 100.568 190.954C100.528 190.228 101.889 186.768 102.227 185.916C102.28 185.793 102.307 185.723 102.307 185.723C102.307 185.723 99.2042 182.483 99.7205 179.611C99.7205 179.611 103.155 177.608 102.024 176.509C100.894 175.409 98.8733 172.252 98.8733 172.252C98.8733 172.252 98.7805 160.445 98.8733 158.682C98.97 157.459 98.9119 156.228 98.7003 155.019C98.6627 154.836 98.6176 154.658 98.57 154.483C97.0065 154.716 95.4281 154.836 93.8473 154.841C93.2708 154.841 92.6842 154.841 92.0927 154.806C92.0927 154.973 92.0851 155.153 92.0701 155.347C91.9398 158.272 91.6966 163.4 91.4986 165.306C91.2178 168.037 89.6662 175.399 89.6662 175.399C89.6662 175.399 92.6266 177.297 89.1498 181.975C89.1498 181.975 89.1498 183.67 89.3804 183.915C89.6266 184.718 89.825 185.534 89.9745 186.359C90.1199 187.241 90.1801 188.132 89.9444 188.595C89.3804 189.702 85.9964 189.612 85.9964 189.612L85.9137 189.597C85.2748 189.531 84.6292 189.593 84.0143 189.778C83.3993 189.963 82.8274 190.268 82.3316 190.676C81.0457 191.708 76.1651 191.255 73.5231 190.927C72.4878 190.797 71.7959 190.676 71.7959 190.676C71.7624 190.559 71.7505 190.437 71.7609 190.316C71.7884 189.667 72.2973 188.245 75.7465 186.975C75.7465 186.975 78.9902 184.797 78.945 182.899H79.0127H79.3887C79.1155 182.884 78.94 182.899 78.94 182.899C78.94 182.899 80.2109 178.266 79.692 177.891C79.1732 177.515 80.7273 172.382 80.7273 172.382C80.7273 172.382 81.6172 163.768 81.6648 163.165C81.6628 162.647 81.5843 162.132 81.4317 161.637L81.6648 156.915C81.6648 156.915 81.7099 155.345 81.6648 154.834C81.6724 154.39 81.7084 153.948 81.7726 153.509C81.7952 153.334 81.8177 153.151 81.8428 152.971C80.627 152.663 79.8374 152.377 79.8374 152.377L79.9778 135.938C78.945 133.935 78.7545 129.541 78.7595 126.423C78.7595 124.42 78.8498 122.937 78.8498 122.937L77.4385 120.636C77.4385 120.636 77.1127 117.882 77.629 117.278C77.8571 117.005 77.7544 116.722 77.5664 116.49C77.4687 116.412 77.3657 116.342 77.258 116.279C77.258 116.279 77.2731 116.257 77.2906 116.224C77.1921 116.142 77.0873 116.067 76.9773 116.001C76.9773 116.001 77.4786 115.225 77.0299 114.897C76.6088 115.183 76.2328 115.398 75.947 115.573C75.9671 115.756 75.9871 115.861 75.9871 115.861L75.8668 115.611C75.5911 115.766 75.4231 115.861 75.4231 115.861C75.4231 115.861 73.2122 111.462 73.2599 110.813C73.3075 110.164 71.7558 107.433 71.7558 107.433C71.7558 107.433 71.5678 105.998 70.7206 105.397C69.8733 104.796 70.0638 100.441 70.0638 100.441C70.0638 100.441 69.8282 98.1727 69.2642 97.2462C68.7002 96.3197 69.7781 95.0702 69.7781 95.0702ZM112.081 93.1396L112.038 94.1888C112.289 93.7856 112.47 93.4952 112.47 93.4952L112.081 93.1396Z" fill="url(#paint5_linear)"/>
<path opacity="0.1" d="M74.2501 93.4151L72.5104 89.9095C72.5104 89.9095 71.8186 92.5813 71.8186 94.0086C71.8186 95.4359 70.851 95.5761 70.851 95.5761C70.851 95.5761 69.7907 96.8281 70.3497 97.7396C70.9086 98.651 71.1343 100.92 71.1343 100.92C71.1343 100.92 70.9513 105.249 71.781 105.848C72.6107 106.446 72.7837 107.876 72.7837 107.876C72.7837 107.876 74.3077 110.593 74.2601 111.239C74.2125 111.885 76.3808 116.259 76.3808 116.259C76.3808 116.259 75.3204 110.823 81.4994 108.474C81.4994 108.474 81.5471 106.629 81.0858 106.123C80.6246 105.617 79.9052 105.387 80.3564 102.83C80.8076 100.274 80.4867 97.2187 80.4867 96.6052C80.4867 95.9918 79.103 92.1656 79.103 92.1656L74.2501 93.4151Z" fill="black"/>
<path d="M73.498 89.4086L71.979 89.9094C71.979 89.9094 71.2846 92.5812 71.2846 94.0085C71.2846 95.4358 70.317 95.576 70.317 95.576C70.317 95.576 69.2567 96.828 69.8157 97.7395C70.3747 98.6509 70.5978 100.92 70.5978 100.92C70.5978 100.92 70.4148 105.249 71.2445 105.847C72.0742 106.446 72.2597 107.876 72.2597 107.876C72.2597 107.876 73.7813 110.593 73.7336 111.239C73.686 111.885 75.8568 116.259 75.8568 116.259C75.8568 116.259 74.794 110.823 80.9755 108.474C80.9755 108.474 81.0206 106.629 80.5594 106.123C80.0981 105.617 79.3787 105.387 79.8299 102.83C80.2811 100.274 79.9603 97.2186 79.9603 96.6051C79.9603 95.9916 78.5766 92.1655 78.5766 92.1655L73.498 89.4086Z" fill="white"/>
<path opacity="0.1" d="M33.2714 190.454C46.7611 190.454 57.6966 188.699 57.6966 186.535C57.6966 184.371 46.7611 182.616 33.2714 182.616C19.7817 182.616 8.84613 184.371 8.84613 186.535C8.84613 188.699 19.7817 190.454 33.2714 190.454Z" fill="#5C76FF"/>
<path d="M34.0585 111.464H32.4868V146.813H34.0585V111.464Z" fill="#535461"/>
<path d="M43.9349 146.706L43.8371 148.298L43.6967 150.552L43.6391 151.488L43.5012 153.742L43.441 154.679L43.3007 156.932L41.7164 182.491C41.6476 183.59 41.1618 184.623 40.3581 185.377C39.5543 186.132 38.4929 186.552 37.3899 186.552H29.1529C28.0501 186.552 26.989 186.132 26.1857 185.377C25.3823 184.622 24.8971 183.59 24.8288 182.491L23.2521 156.915L23.1117 154.661L23.0541 153.725L22.9137 151.471L22.8561 150.534L22.7157 148.281L22.6154 146.688C22.598 146.382 22.6435 146.075 22.749 145.787C22.8546 145.498 23.018 145.234 23.2292 145.011C23.4405 144.788 23.6951 144.611 23.9775 144.49C24.2599 144.369 24.5641 144.306 24.8714 144.307H41.7189C42.0251 144.31 42.3275 144.375 42.6074 144.499C42.8874 144.623 43.1389 144.803 43.3466 145.027C43.5542 145.252 43.7135 145.517 43.8147 145.806C43.9159 146.094 43.9568 146.401 43.9349 146.706Z" fill="#3F3D56"/>
<path d="M43.8371 148.298L43.6967 150.544H22.846L22.7057 148.298H43.8371Z" fill="#9D9CB5"/>
<path d="M43.6391 151.481L43.5012 153.73H23.0441L22.9037 151.481H43.6391Z" fill="#9D9CB5"/>
<path d="M43.4411 154.669L43.3032 156.915H23.2421L23.1017 154.669H43.4411Z" fill="#9D9CB5"/>
<path d="M20.3068 124.713C29.4587 131.329 33.2789 141.675 33.2789 141.675C33.2789 141.675 22.2495 141.297 13.095 134.681C3.94056 128.066 0.127869 117.722 0.127869 117.722C0.127869 117.722 11.1523 118.097 20.3068 124.713Z" fill="url(#paint6_linear)"/>
<path d="M0.120331 117.722C0.120331 117.722 11.5709 124.069 15.2432 129.325C18.9155 134.581 33.2789 141.675 33.2789 141.675" stroke="#535461" stroke-width="2" stroke-miterlimit="10"/>
<path d="M26.215 111.386C31.1958 114.985 33.2789 120.616 33.2789 120.616C33.2789 120.616 27.2754 120.411 22.292 116.813C17.3087 113.214 15.2307 107.58 15.2307 107.58C15.2307 107.58 21.2317 107.786 26.215 111.386Z" fill="url(#paint7_linear)"/>
<path d="M15.2307 107.58C15.2307 107.58 21.4623 111.036 23.4602 113.896C25.458 116.755 33.2789 120.616 33.2789 120.616" stroke="#535461" stroke-width="2" stroke-miterlimit="10"/>
<path d="M40.5107 120.331C34.7879 126.613 33.5772 134.824 33.5772 134.824C33.5772 134.824 41.6463 132.846 47.364 126.561C53.0818 120.276 54.2976 112.068 54.2976 112.068C54.2976 112.068 46.2335 114.048 40.5107 120.331Z" fill="url(#paint8_linear)"/>
<path d="M54.3026 112.07C54.3026 112.07 46.8477 118.51 44.9526 122.948C43.0575 127.385 33.5772 134.824 33.5772 134.824" stroke="#535461" stroke-width="2" stroke-miterlimit="10"/>
</g>
<defs>
<linearGradient id="paint0_linear" x1="21.9323" y1="20.4925" x2="35.2153" y2="23.9783" gradientUnits="userSpaceOnUse">
<stop stop-color="#2196F3"/>
<stop offset="1" stop-color="#5C76FF"/>
</linearGradient>
<linearGradient id="paint1_linear" x1="16.2296" y1="30.6348" x2="40.7276" y2="36.2862" gradientUnits="userSpaceOnUse">
<stop stop-color="#2196F3"/>
<stop offset="1" stop-color="#5C76FF"/>
</linearGradient>
<linearGradient id="paint2_linear" x1="155.988" y1="-82.1628" x2="361.724" y2="9.10293" gradientUnits="userSpaceOnUse">
<stop stop-color="#2196F3"/>
<stop offset="1" stop-color="#5C76FF"/>
</linearGradient>
<linearGradient id="paint3_linear" x1="16.2296" y1="57.3576" x2="37.4365" y2="67.2288" gradientUnits="userSpaceOnUse">
<stop stop-color="#2196F3"/>
<stop offset="1" stop-color="#5C76FF"/>
</linearGradient>
<linearGradient id="paint4_linear" x1="15.9288" y1="55.7567" x2="41.8688" y2="59.2626" gradientUnits="userSpaceOnUse">
<stop stop-color="#2196F3"/>
<stop offset="1" stop-color="#5C76FF"/>
</linearGradient>
<linearGradient id="paint5_linear" x1="96.166" y1="194.029" x2="96.166" y2="39.9466" gradientUnits="userSpaceOnUse">
<stop stop-color="#808080" stop-opacity="0.25"/>
<stop offset="0.54" stop-color="#808080" stop-opacity="0.12"/>
<stop offset="1" stop-color="#808080" stop-opacity="0.1"/>
</linearGradient>
<linearGradient id="paint6_linear" x1="16.7034" y1="106.834" x2="44.5719" y2="119.613" gradientUnits="userSpaceOnUse">
<stop stop-color="#2196F3"/>
<stop offset="1" stop-color="#5C76FF"/>
</linearGradient>
<linearGradient id="paint7_linear" x1="24.2548" y1="101.655" x2="39.4251" y2="108.614" gradientUnits="userSpaceOnUse">
<stop stop-color="#2196F3"/>
<stop offset="1" stop-color="#5C76FF"/>
</linearGradient>
<linearGradient id="paint8_linear" x1="43.9374" y1="101.724" x2="63.2599" y2="107.553" gradientUnits="userSpaceOnUse">
<stop stop-color="#2196F3"/>
<stop offset="1" stop-color="#5C76FF"/>
</linearGradient>
<clipPath id="clip0">
<rect width="277" height="196" fill="white"/>
</clipPath>
</defs>
</svg>
